<?xml version="1.0" encoding="utf-8" standalone="no"?>
<!DOCTYPE svg PUBLIC "-//W3C//DTD SVG 1.1//EN"
  "http://www.w3.org/Graphics/SVG/1.1/DTD/svg11.dtd">
<svg xmlns:xlink="http://www.w3.org/1999/xlink" width="864pt" height="864pt" viewBox="0 0 864 864" xmlns="http://www.w3.org/2000/svg" version="1.1">
 <metadata>
  <rdf:RDF xmlns:dc="http://purl.org/dc/elements/1.1/" xmlns:cc="http://creativecommons.org/ns#" xmlns:rdf="http://www.w3.org/1999/02/22-rdf-syntax-ns#">
   <cc:Work>
    <dc:type rdf:resource="http://purl.org/dc/dcmitype/StillImage"/>
    <dc:date>2024-04-07T11:25:02.410238</dc:date>
    <dc:format>image/svg+xml</dc:format>
    <dc:creator>
     <cc:Agent>
      <dc:title>Matplotlib v3.5.1, https://matplotlib.org/</dc:title>
     </cc:Agent>
    </dc:creator>
   </cc:Work>
  </rdf:RDF>
 </metadata>
 <defs>
  <style type="text/css">*{stroke-linejoin: round; stroke-linecap: butt}</style>
 </defs>
 <g id="figure_1">
  <g id="patch_1">
   <path d="M 0 864 
L 864 864 
L 864 0 
L 0 0 
z
" style="fill: #ffffff"/>
  </g>
  <g id="axes_1">
   <g id="patch_2">
    <path d="M 768.96 429.84 
C 768.96 387.009061 760.523239 344.594599 744.132548 305.023972 
C 727.741858 265.453344 703.715995 229.496099 673.429948 199.210052 
C 643.143901 168.924005 607.186656 144.898142 567.616028 128.507452 
C 528.045401 112.116761 485.630939 103.68 442.8 103.68 
C 399.969061 103.68 357.554599 112.116761 317.983972 128.507452 
C 278.413344 144.898142 242.456099 168.924005 212.170052 199.210052 
C 181.884005 229.496099 157.858142 265.453344 141.467452 305.023972 
C 125.076761 344.594599 116.64 387.009061 116.64 429.84 
C 116.64 472.670939 125.076761 515.085401 141.467452 554.656028 
C 157.858142 594.226656 181.884005 630.183901 212.170052 660.469948 
C 242.456099 690.755995 278.413344 714.781858 317.983972 731.172548 
C 357.554599 747.563239 399.969061 756 442.8 756 
C 485.630939 756 528.045401 747.563239 567.616028 731.172548 
C 607.186656 714.781858 643.143901 690.755995 673.429948 660.469948 
C 703.715995 630.183901 727.741858 594.226656 744.132548 554.656028 
C 760.523239 515.085401 768.96 472.670939 768.96 429.84 
M 442.8 429.84 
C 442.8 429.84 442.8 429.84 442.8 429.84 
C 442.8 429.84 442.8 429.84 442.8 429.84 
C 442.8 429.84 442.8 429.84 442.8 429.84 
C 442.8 429.84 442.8 429.84 442.8 429.84 
C 442.8 429.84 442.8 429.84 442.8 429.84 
C 442.8 429.84 442.8 429.84 442.8 429.84 
C 442.8 429.84 442.8 429.84 442.8 429.84 
C 442.8 429.84 442.8 429.84 442.8 429.84 
C 442.8 429.84 442.8 429.84 442.8 429.84 
C 442.8 429.84 442.8 429.84 442.8 429.84 
C 442.8 429.84 442.8 429.84 442.8 429.84 
C 442.8 429.84 442.8 429.84 442.8 429.84 
C 442.8 429.84 442.8 429.84 442.8 429.84 
C 442.8 429.84 442.8 429.84 442.8 429.84 
C 442.8 429.84 442.8 429.84 442.8 429.84 
C 442.8 429.84 442.8 429.84 442.8 429.84 
M 768.96 429.84 
z
" style="fill: #ffffff"/>
   </g>
   <g id="matplotlib.axis_1">
    <g id="xtick_1">
     <g id="line2d_1">
      <path d="M 442.8 429.84 
L 442.8 103.68 
" clip-path="url(#p4312b3becc)" style="fill: none; stroke: #b0b0b0; stroke-width: 0.8; stroke-linecap: square"/>
     </g>
     <g id="text_1">
      <!-- 0° -->
      <g transform="translate(437.11875 92.439375)scale(0.1 -0.1)">
       <defs>
        <path id="DejaVuSans-30" d="M 2034 4250 
Q 1547 4250 1301 3770 
Q 1056 3291 1056 2328 
Q 1056 1369 1301 889 
Q 1547 409 2034 409 
Q 2525 409 2770 889 
Q 3016 1369 3016 2328 
Q 3016 3291 2770 3770 
Q 2525 4250 2034 4250 
z
M 2034 4750 
Q 2819 4750 3233 4129 
Q 3647 3509 3647 2328 
Q 3647 1150 3233 529 
Q 2819 -91 2034 -91 
Q 1250 -91 836 529 
Q 422 1150 422 2328 
Q 422 3509 836 4129 
Q 1250 4750 2034 4750 
z
" transform="scale(0.015625)"/>
        <path id="DejaVuSans-b0" d="M 1600 4347 
Q 1350 4347 1178 4173 
Q 1006 4000 1006 3750 
Q 1006 3503 1178 3333 
Q 1350 3163 1600 3163 
Q 1850 3163 2022 3333 
Q 2194 3503 2194 3750 
Q 2194 3997 2020 4172 
Q 1847 4347 1600 4347 
z
M 1600 4750 
Q 1800 4750 1984 4673 
Q 2169 4597 2303 4453 
Q 2447 4313 2519 4134 
Q 2591 3956 2591 3750 
Q 2591 3338 2302 3052 
Q 2013 2766 1594 2766 
Q 1172 2766 890 3047 
Q 609 3328 609 3750 
Q 609 4169 896 4459 
Q 1184 4750 1600 4750 
z
" transform="scale(0.015625)"/>
       </defs>
       <use xlink:href="#DejaVuSans-30"/>
       <use xlink:href="#DejaVuSans-b0" x="63.623047"/>
      </g>
     </g>
    </g>
    <g id="xtick_2">
     <g id="line2d_2">
      <path d="M 442.8 429.84 
L 212.170052 199.210052 
" clip-path="url(#p4312b3becc)" style="fill: none; stroke: #b0b0b0; stroke-width: 0.8; stroke-linecap: square"/>
     </g>
     <g id="text_2">
      <!-- 45° -->
      <g transform="translate(193.408057 192.069932)scale(0.1 -0.1)">
       <defs>
        <path id="DejaVuSans-34" d="M 2419 4116 
L 825 1625 
L 2419 1625 
L 2419 4116 
z
M 2253 4666 
L 3047 4666 
L 3047 1625 
L 3713 1625 
L 3713 1100 
L 3047 1100 
L 3047 0 
L 2419 0 
L 2419 1100 
L 313 1100 
L 313 1709 
L 2253 4666 
z
" transform="scale(0.015625)"/>
        <path id="DejaVuSans-35" d="M 691 4666 
L 3169 4666 
L 3169 4134 
L 1269 4134 
L 1269 2991 
Q 1406 3038 1543 3061 
Q 1681 3084 1819 3084 
Q 2600 3084 3056 2656 
Q 3513 2228 3513 1497 
Q 3513 744 3044 326 
Q 2575 -91 1722 -91 
Q 1428 -91 1123 -41 
Q 819 9 494 109 
L 494 744 
Q 775 591 1075 516 
Q 1375 441 1709 441 
Q 2250 441 2565 725 
Q 2881 1009 2881 1497 
Q 2881 1984 2565 2268 
Q 2250 2553 1709 2553 
Q 1456 2553 1204 2497 
Q 953 2441 691 2322 
L 691 4666 
z
" transform="scale(0.015625)"/>
       </defs>
       <use xlink:href="#DejaVuSans-34"/>
       <use xlink:href="#DejaVuSans-35" x="63.623047"/>
       <use xlink:href="#DejaVuSans-b0" x="127.246094"/>
      </g>
     </g>
    </g>
    <g id="xtick_3">
     <g id="line2d_3">
      <path d="M 442.8 429.84 
L 116.64 429.84 
" clip-path="url(#p4312b3becc)" style="fill: none; stroke: #b0b0b0; stroke-width: 0.8; stroke-linecap: square"/>
     </g>
     <g id="text_3">
      <!-- 90° -->
      <g transform="translate(93.7775 432.599375)scale(0.1 -0.1)">
       <defs>
        <path id="DejaVuSans-39" d="M 703 97 
L 703 672 
Q 941 559 1184 500 
Q 1428 441 1663 441 
Q 2288 441 2617 861 
Q 2947 1281 2994 2138 
Q 2813 1869 2534 1725 
Q 2256 1581 1919 1581 
Q 1219 1581 811 2004 
Q 403 2428 403 3163 
Q 403 3881 828 4315 
Q 1253 4750 1959 4750 
Q 2769 4750 3195 4129 
Q 3622 3509 3622 2328 
Q 3622 1225 3098 567 
Q 2575 -91 1691 -91 
Q 1453 -91 1209 -44 
Q 966 3 703 97 
z
M 1959 2075 
Q 2384 2075 2632 2365 
Q 2881 2656 2881 3163 
Q 2881 3666 2632 3958 
Q 2384 4250 1959 4250 
Q 1534 4250 1286 3958 
Q 1038 3666 1038 3163 
Q 1038 2656 1286 2365 
Q 1534 2075 1959 2075 
z
" transform="scale(0.015625)"/>
       </defs>
       <use xlink:href="#DejaVuSans-39"/>
       <use xlink:href="#DejaVuSans-30" x="63.623047"/>
       <use xlink:href="#DejaVuSans-b0" x="127.246094"/>
      </g>
     </g>
    </g>
    <g id="xtick_4">
     <g id="line2d_4">
      <path d="M 442.8 429.84 
L 212.170052 660.469948 
" clip-path="url(#p4312b3becc)" style="fill: none; stroke: #b0b0b0; stroke-width: 0.8; stroke-linecap: square"/>
     </g>
     <g id="text_4">
      <!-- 135° -->
      <g transform="translate(190.226807 673.128818)scale(0.1 -0.1)">
       <defs>
        <path id="DejaVuSans-31" d="M 794 531 
L 1825 531 
L 1825 4091 
L 703 3866 
L 703 4441 
L 1819 4666 
L 2450 4666 
L 2450 531 
L 3481 531 
L 3481 0 
L 794 0 
L 794 531 
z
" transform="scale(0.015625)"/>
        <path id="DejaVuSans-33" d="M 2597 2516 
Q 3050 2419 3304 2112 
Q 3559 1806 3559 1356 
Q 3559 666 3084 287 
Q 2609 -91 1734 -91 
Q 1441 -91 1130 -33 
Q 819 25 488 141 
L 488 750 
Q 750 597 1062 519 
Q 1375 441 1716 441 
Q 2309 441 2620 675 
Q 2931 909 2931 1356 
Q 2931 1769 2642 2001 
Q 2353 2234 1838 2234 
L 1294 2234 
L 1294 2753 
L 1863 2753 
Q 2328 2753 2575 2939 
Q 2822 3125 2822 3475 
Q 2822 3834 2567 4026 
Q 2313 4219 1838 4219 
Q 1578 4219 1281 4162 
Q 984 4106 628 3988 
L 628 4550 
Q 988 4650 1302 4700 
Q 1616 4750 1894 4750 
Q 2613 4750 3031 4423 
Q 3450 4097 3450 3541 
Q 3450 3153 3228 2886 
Q 3006 2619 2597 2516 
z
" transform="scale(0.015625)"/>
       </defs>
       <use xlink:href="#DejaVuSans-31"/>
       <use xlink:href="#DejaVuSans-33" x="63.623047"/>
       <use xlink:href="#DejaVuSans-35" x="127.246094"/>
       <use xlink:href="#DejaVuSans-b0" x="190.869141"/>
      </g>
     </g>
    </g>
    <g id="xtick_5">
     <g id="line2d_5">
      <path d="M 442.8 429.84 
L 442.8 756 
" clip-path="url(#p4312b3becc)" style="fill: none; stroke: #b0b0b0; stroke-width: 0.8; stroke-linecap: square"/>
     </g>
     <g id="text_5">
      <!-- 180° -->
      <g transform="translate(430.75625 772.759375)scale(0.1 -0.1)">
       <defs>
        <path id="DejaVuSans-38" d="M 2034 2216 
Q 1584 2216 1326 1975 
Q 1069 1734 1069 1313 
Q 1069 891 1326 650 
Q 1584 409 2034 409 
Q 2484 409 2743 651 
Q 3003 894 3003 1313 
Q 3003 1734 2745 1975 
Q 2488 2216 2034 2216 
z
M 1403 2484 
Q 997 2584 770 2862 
Q 544 3141 544 3541 
Q 544 4100 942 4425 
Q 1341 4750 2034 4750 
Q 2731 4750 3128 4425 
Q 3525 4100 3525 3541 
Q 3525 3141 3298 2862 
Q 3072 2584 2669 2484 
Q 3125 2378 3379 2068 
Q 3634 1759 3634 1313 
Q 3634 634 3220 271 
Q 2806 -91 2034 -91 
Q 1263 -91 848 271 
Q 434 634 434 1313 
Q 434 1759 690 2068 
Q 947 2378 1403 2484 
z
M 1172 3481 
Q 1172 3119 1398 2916 
Q 1625 2713 2034 2713 
Q 2441 2713 2670 2916 
Q 2900 3119 2900 3481 
Q 2900 3844 2670 4047 
Q 2441 4250 2034 4250 
Q 1625 4250 1398 4047 
Q 1172 3844 1172 3481 
z
" transform="scale(0.015625)"/>
       </defs>
       <use xlink:href="#DejaVuSans-31"/>
       <use xlink:href="#DejaVuSans-38" x="63.623047"/>
       <use xlink:href="#DejaVuSans-30" x="127.246094"/>
       <use xlink:href="#DejaVuSans-b0" x="190.869141"/>
      </g>
     </g>
    </g>
    <g id="xtick_6">
     <g id="line2d_6">
      <path d="M 442.8 429.84 
L 673.429948 660.469948 
" clip-path="url(#p4312b3becc)" style="fill: none; stroke: #b0b0b0; stroke-width: 0.8; stroke-linecap: square"/>
     </g>
     <g id="text_6">
      <!-- 225° -->
      <g transform="translate(671.285693 673.128818)scale(0.1 -0.1)">
       <defs>
        <path id="DejaVuSans-32" d="M 1228 531 
L 3431 531 
L 3431 0 
L 469 0 
L 469 531 
Q 828 903 1448 1529 
Q 2069 2156 2228 2338 
Q 2531 2678 2651 2914 
Q 2772 3150 2772 3378 
Q 2772 3750 2511 3984 
Q 2250 4219 1831 4219 
Q 1534 4219 1204 4116 
Q 875 4013 500 3803 
L 500 4441 
Q 881 4594 1212 4672 
Q 1544 4750 1819 4750 
Q 2544 4750 2975 4387 
Q 3406 4025 3406 3419 
Q 3406 3131 3298 2873 
Q 3191 2616 2906 2266 
Q 2828 2175 2409 1742 
Q 1991 1309 1228 531 
z
" transform="scale(0.015625)"/>
       </defs>
       <use xlink:href="#DejaVuSans-32"/>
       <use xlink:href="#DejaVuSans-32" x="63.623047"/>
       <use xlink:href="#DejaVuSans-35" x="127.246094"/>
       <use xlink:href="#DejaVuSans-b0" x="190.869141"/>
      </g>
     </g>
    </g>
    <g id="xtick_7">
     <g id="line2d_7">
      <path d="M 442.8 429.84 
L 768.96 429.84 
" clip-path="url(#p4312b3becc)" style="fill: none; stroke: #b0b0b0; stroke-width: 0.8; stroke-linecap: square"/>
     </g>
     <g id="text_7">
      <!-- 270° -->
      <g transform="translate(770.91625 432.599375)scale(0.1 -0.1)">
       <defs>
        <path id="DejaVuSans-37" d="M 525 4666 
L 3525 4666 
L 3525 4397 
L 1831 0 
L 1172 0 
L 2766 4134 
L 525 4134 
L 525 4666 
z
" transform="scale(0.015625)"/>
       </defs>
       <use xlink:href="#DejaVuSans-32"/>
       <use xlink:href="#DejaVuSans-37" x="63.623047"/>
       <use xlink:href="#DejaVuSans-30" x="127.246094"/>
       <use xlink:href="#DejaVuSans-b0" x="190.869141"/>
      </g>
     </g>
    </g>
    <g id="xtick_8">
     <g id="line2d_8">
      <path d="M 442.8 429.84 
L 673.429948 199.210052 
" clip-path="url(#p4312b3becc)" style="fill: none; stroke: #b0b0b0; stroke-width: 0.8; stroke-linecap: square"/>
     </g>
     <g id="text_8">
      <!-- 315° -->
      <g transform="translate(671.285693 192.069932)scale(0.1 -0.1)">
       <use xlink:href="#DejaVuSans-33"/>
       <use xlink:href="#DejaVuSans-31" x="63.623047"/>
       <use xlink:href="#DejaVuSans-35" x="127.246094"/>
       <use xlink:href="#DejaVuSans-b0" x="190.869141"/>
      </g>
     </g>
    </g>
   </g>
   <g id="matplotlib.axis_2">
    <g id="ytick_1">
     <g id="line2d_9">
      <path d="M 442.8 366.236985 
C 434.447729 366.236985 426.176673 367.8822 418.46018 371.078476 
C 410.743687 374.274752 403.731825 378.959929 397.825877 384.865877 
C 391.919929 390.771825 387.234752 397.783687 384.038476 405.50018 
C 380.8422 413.216673 379.196985 421.487729 379.196985 429.84 
C 379.196985 438.192271 380.8422 446.463327 384.038476 454.17982 
C 387.234752 461.896313 391.919929 468.908175 397.825877 474.814123 
C 403.731825 480.720071 410.743687 485.405248 418.46018 488.601524 
C 426.176673 491.7978 434.447729 493.443015 442.8 493.443015 
C 451.152271 493.443015 459.423327 491.7978 467.13982 488.601524 
C 474.856313 485.405248 481.868175 480.720071 487.774123 474.814123 
C 493.680071 468.908175 498.365248 461.896313 501.561524 454.17982 
C 504.7578 446.463327 506.403015 438.192271 506.403015 429.84 
C 506.403015 421.487729 504.7578 413.216673 501.561524 405.50018 
C 498.365248 397.783687 493.680071 390.771825 487.774123 384.865877 
C 481.868175 378.959929 474.856313 374.274752 467.13982 371.078476 
C 459.423327 367.8822 451.152271 366.236985 442.8 366.236985 
" clip-path="url(#p4312b3becc)" style="fill: none; stroke: #b0b0b0; stroke-width: 0.8; stroke-linecap: square"/>
     </g>
    </g>
    <g id="ytick_2">
     <g id="line2d_10">
      <path d="M 442.8 302.63397 
C 426.095457 302.63397 409.553345 305.924401 394.12036 312.316952 
C 378.687375 318.709504 364.663649 328.079858 352.851754 339.891754 
C 341.039858 351.703649 331.669504 365.727375 325.276952 381.16036 
C 318.884401 396.593345 315.59397 413.135457 315.59397 429.84 
C 315.59397 446.544543 318.884401 463.086655 325.276952 478.51964 
C 331.669504 493.952625 341.039858 507.976351 352.851754 519.788246 
C 364.663649 531.600142 378.687375 540.970496 394.12036 547.363048 
C 409.553345 553.755599 426.095457 557.04603 442.8 557.04603 
C 459.504543 557.04603 476.046655 553.755599 491.47964 547.363048 
C 506.912625 540.970496 520.936351 531.600142 532.748246 519.788246 
C 544.560142 507.976351 553.930496 493.952625 560.323048 478.51964 
C 566.715599 463.086655 570.00603 446.544543 570.00603 429.84 
C 570.00603 413.135457 566.715599 396.593345 560.323048 381.16036 
C 553.930496 365.727375 544.560142 351.703649 532.748246 339.891754 
C 520.936351 328.079858 506.912625 318.709504 491.47964 312.316952 
C 476.046655 305.924401 459.504543 302.63397 442.8 302.63397 
" clip-path="url(#p4312b3becc)" style="fill: none; stroke: #b0b0b0; stroke-width: 0.8; stroke-linecap: square"/>
     </g>
    </g>
    <g id="ytick_3">
     <g id="line2d_11">
      <path d="M 442.8 239.030955 
C 417.743186 239.030955 392.930018 243.966601 369.78054 253.555429 
C 346.631062 263.144256 325.595474 277.199787 307.87763 294.91763 
C 290.159787 312.635474 276.104256 333.671062 266.515429 356.82054 
C 256.926601 379.970018 251.990955 404.783186 251.990955 429.84 
C 251.990955 454.896814 256.926601 479.709982 266.515429 502.85946 
C 276.104256 526.008938 290.159787 547.044526 307.87763 564.76237 
C 325.595474 582.480213 346.631062 596.535744 369.78054 606.124571 
C 392.930018 615.713399 417.743186 620.649045 442.8 620.649045 
C 467.856814 620.649045 492.669982 615.713399 515.81946 606.124571 
C 538.968938 596.535744 560.004526 582.480213 577.72237 564.76237 
C 595.440213 547.044526 609.495744 526.008938 619.084571 502.85946 
C 628.673399 479.709982 633.609045 454.896814 633.609045 429.84 
C 633.609045 404.783186 628.673399 379.970018 619.084571 356.82054 
C 609.495744 333.671062 595.440213 312.635474 577.72237 294.91763 
C 560.004526 277.199787 538.968938 263.144256 515.81946 253.555429 
C 492.669982 243.966601 467.856814 239.030955 442.8 239.030955 
" clip-path="url(#p4312b3becc)" style="fill: none; stroke: #b0b0b0; stroke-width: 0.8; stroke-linecap: square"/>
     </g>
    </g>
    <g id="ytick_4">
     <g id="line2d_12">
      <path d="M 442.8 175.42794 
C 409.390914 175.42794 376.30669 182.008801 345.44072 194.793905 
C 314.574749 207.579008 286.527298 226.319716 262.903507 249.943507 
C 239.279716 273.567298 220.539008 301.614749 207.753905 332.48072 
C 194.968801 363.34669 188.38794 396.430914 188.38794 429.84 
C 188.38794 463.249086 194.968801 496.33331 207.753905 527.19928 
C 220.539008 558.065251 239.279716 586.112702 262.903507 609.736493 
C 286.527298 633.360284 314.574749 652.100992 345.44072 664.886095 
C 376.30669 677.671199 409.390914 684.25206 442.8 684.25206 
C 476.209086 684.25206 509.29331 677.671199 540.15928 664.886095 
C 571.025251 652.100992 599.072702 633.360284 622.696493 609.736493 
C 646.320284 586.112702 665.060992 558.065251 677.846095 527.19928 
C 690.631199 496.33331 697.21206 463.249086 697.21206 429.84 
C 697.21206 396.430914 690.631199 363.34669 677.846095 332.48072 
C 665.060992 301.614749 646.320284 273.567298 622.696493 249.943507 
C 599.072702 226.319716 571.025251 207.579008 540.15928 194.793905 
C 509.29331 182.008801 476.209086 175.42794 442.8 175.42794 
" clip-path="url(#p4312b3becc)" style="fill: none; stroke: #b0b0b0; stroke-width: 0.8; stroke-linecap: square"/>
     </g>
    </g>
    <g id="ytick_5">
     <g id="line2d_13">
      <path d="M 442.8 111.824925 
C 401.038643 111.824925 359.683363 120.051002 321.1009 136.032381 
C 282.518437 152.013761 247.459123 175.439645 217.929384 204.969384 
C 188.399645 234.499123 164.973761 269.558437 148.992381 308.1409 
C 133.011002 346.723363 124.784925 388.078643 124.784925 429.84 
C 124.784925 471.601357 133.011002 512.956637 148.992381 551.5391 
C 164.973761 590.121563 188.399645 625.180877 217.929384 654.710616 
C 247.459123 684.240355 282.518437 707.666239 321.1009 723.647619 
C 359.683363 739.628998 401.038643 747.855075 442.8 747.855075 
C 484.561357 747.855075 525.916637 739.628998 564.4991 723.647619 
C 603.081563 707.666239 638.140877 684.240355 667.670616 654.710616 
C 697.200355 625.180877 720.626239 590.121563 736.607619 551.5391 
C 752.588998 512.956637 760.815075 471.601357 760.815075 429.84 
C 760.815075 388.078643 752.588998 346.723363 736.607619 308.1409 
C 720.626239 269.558437 697.200355 234.499123 667.670616 204.969384 
C 638.140877 175.439645 603.081563 152.013761 564.4991 136.032381 
C 525.916637 120.051002 484.561357 111.824925 442.8 111.824925 
" clip-path="url(#p4312b3becc)" style="fill: none; stroke: #b0b0b0; stroke-width: 0.8; stroke-linecap: square"/>
     </g>
    </g>
   </g>
   <g id="line2d_14">
    <path d="M 442.8 429.84 
L 184.980366 487.222524 
" clip-path="url(#p4312b3becc)" style="fill: none; stroke: #ff0000; stroke-width: 1.5; stroke-linecap: square"/>
   </g>
   <g id="line2d_15">
    <path d="M 442.8 429.84 
L 533.109459 346.131657 
" clip-path="url(#p4312b3becc)" style="fill: none; stroke: #008000; stroke-width: 1.5; stroke-linecap: square"/>
   </g>
   <g id="line2d_16">
    <path d="M 442.8 429.84 
L 594.55474 534.458812 
" clip-path="url(#p4312b3becc)" style="fill: none; stroke: #008000; stroke-width: 1.5; stroke-linecap: square"/>
   </g>
   <g id="line2d_17">
    <path d="M 442.8 429.84 
L 578.145762 619.026581 
" clip-path="url(#p4312b3becc)" style="fill: none; stroke: #008000; stroke-width: 1.5; stroke-linecap: square"/>
   </g>
   <g id="line2d_18">
    <path d="M 442.8 429.84 
L 296.138516 671.830344 
" clip-path="url(#p4312b3becc)" style="fill: none; stroke: #008000; stroke-width: 1.5; stroke-linecap: square"/>
   </g>
   <g id="line2d_19">
    <path d="M 442.8 429.84 
L 165.552095 569.924647 
" clip-path="url(#p4312b3becc)" style="fill: none; stroke: #008000; stroke-width: 1.5; stroke-linecap: square"/>
   </g>
   <g id="line2d_20">
    <path d="M 442.8 429.84 
L 548.34686 512.727802 
" clip-path="url(#p4312b3becc)" style="fill: none; stroke: #008000; stroke-width: 1.5; stroke-linecap: square"/>
   </g>
   <g id="line2d_21">
    <path d="M 442.8 429.84 
L 648.010973 639.548607 
" clip-path="url(#p4312b3becc)" style="fill: none; stroke: #008000; stroke-width: 1.5; stroke-linecap: square"/>
   </g>
   <g id="line2d_22">
    <path d="M 442.8 429.84 
L 611.173216 636.823859 
" clip-path="url(#p4312b3becc)" style="fill: none; stroke: #008000; stroke-width: 1.5; stroke-linecap: square"/>
   </g>
   <g id="line2d_23">
    <path d="M 442.8 429.84 
L 340.84536 367.34103 
" clip-path="url(#p4312b3becc)" style="fill: none; stroke: #008000; stroke-width: 1.5; stroke-linecap: square"/>
   </g>
   <g id="line2d_24">
    <path d="M 442.8 429.84 
L 315.944903 691.197506 
" clip-path="url(#p4312b3becc)" style="fill: none; stroke: #008000; stroke-width: 1.5; stroke-linecap: square"/>
   </g>
   <g id="line2d_25">
    <path d="M 442.8 429.84 
L 308.194926 671.825699 
" clip-path="url(#p4312b3becc)" style="fill: none; stroke: #008000; stroke-width: 1.5; stroke-linecap: square"/>
   </g>
   <g id="line2d_26">
    <path d="M 442.8 429.84 
L 477.825047 532.44882 
" clip-path="url(#p4312b3becc)" style="fill: none; stroke: #008000; stroke-width: 1.5; stroke-linecap: square"/>
   </g>
   <g id="line2d_27">
    <path d="M 442.8 429.84 
L 415.909134 463.542836 
" clip-path="url(#p4312b3becc)" style="fill: none; stroke: #008000; stroke-width: 1.5; stroke-linecap: square"/>
   </g>
   <g id="line2d_28">
    <path d="M 442.8 429.84 
L 272.945248 645.273793 
" clip-path="url(#p4312b3becc)" style="fill: none; stroke: #008000; stroke-width: 1.5; stroke-linecap: square"/>
   </g>
   <g id="line2d_29">
    <path d="M 442.8 429.84 
L 367.403979 731.110633 
" clip-path="url(#p4312b3becc)" style="fill: none; stroke: #008000; stroke-width: 1.5; stroke-linecap: square"/>
   </g>
   <g id="line2d_30">
    <path d="M 442.8 429.84 
L 143.744895 359.287366 
" clip-path="url(#p4312b3becc)" style="fill: none; stroke: #ff0000; stroke-width: 1.5; stroke-linecap: square"/>
   </g>
   <g id="patch_3">
    <path d="M 442.8 103.68 
C 399.969061 103.68 357.554599 112.116761 317.983972 128.507452 
C 278.413344 144.898142 242.456099 168.924005 212.170052 199.210052 
C 181.884005 229.496099 157.858142 265.453344 141.467452 305.023972 
C 125.076761 344.594599 116.64 387.009061 116.64 429.84 
C 116.64 472.670939 125.076761 515.085401 141.467452 554.656028 
C 157.858142 594.226656 181.884005 630.183901 212.170052 660.469948 
C 242.456099 690.755995 278.413344 714.781858 317.983972 731.172548 
C 357.554599 747.563239 399.969061 756 442.8 756 
C 485.630939 756 528.045401 747.563239 567.616028 731.172548 
C 607.186656 714.781858 643.143901 690.755995 673.429948 660.469948 
C 703.715995 630.183901 727.741858 594.226656 744.132548 554.656028 
C 760.523239 515.085401 768.96 472.670939 768.96 429.84 
C 768.96 387.009061 760.523239 344.594599 744.132548 305.023972 
C 727.741858 265.453344 703.715995 229.496099 673.429948 199.210052 
C 643.143901 168.924005 607.186656 144.898142 567.616028 128.507452 
C 528.045401 112.116761 485.630939 103.68 442.8 103.68 
" style="fill: none; stroke: #000000; stroke-width: 0.8; stroke-linejoin: miter; stroke-linecap: square"/>
   </g>
   <g id="legend_1">
    <g id="patch_4">
     <path d="M 707.581875 155.714375 
L 761.96 155.714375 
Q 763.96 155.714375 763.96 153.714375 
L 763.96 110.68 
Q 763.96 108.68 761.96 108.68 
L 707.581875 108.68 
Q 705.581875 108.68 705.581875 110.68 
L 705.581875 153.714375 
Q 705.581875 155.714375 707.581875 155.714375 
z
" style="fill: #ffffff; opacity: 0.8; stroke: #cccccc; stroke-linejoin: miter"/>
    </g>
    <g id="line2d_31">
     <path d="M 709.581875 116.778437 
L 719.581875 116.778437 
L 729.581875 116.778437 
" style="fill: none; stroke: #008000; stroke-width: 2; stroke-linecap: square"/>
    </g>
    <g id="text_9">
     <!-- loop -->
     <g transform="translate(737.581875 120.278437)scale(0.1 -0.1)">
      <defs>
       <path id="DejaVuSans-6c" d="M 603 4863 
L 1178 4863 
L 1178 0 
L 603 0 
L 603 4863 
z
" transform="scale(0.015625)"/>
       <path id="DejaVuSans-6f" d="M 1959 3097 
Q 1497 3097 1228 2736 
Q 959 2375 959 1747 
Q 959 1119 1226 758 
Q 1494 397 1959 397 
Q 2419 397 2687 759 
Q 2956 1122 2956 1747 
Q 2956 2369 2687 2733 
Q 2419 3097 1959 3097 
z
M 1959 3584 
Q 2709 3584 3137 3096 
Q 3566 2609 3566 1747 
Q 3566 888 3137 398 
Q 2709 -91 1959 -91 
Q 1206 -91 779 398 
Q 353 888 353 1747 
Q 353 2609 779 3096 
Q 1206 3584 1959 3584 
z
" transform="scale(0.015625)"/>
       <path id="DejaVuSans-70" d="M 1159 525 
L 1159 -1331 
L 581 -1331 
L 581 3500 
L 1159 3500 
L 1159 2969 
Q 1341 3281 1617 3432 
Q 1894 3584 2278 3584 
Q 2916 3584 3314 3078 
Q 3713 2572 3713 1747 
Q 3713 922 3314 415 
Q 2916 -91 2278 -91 
Q 1894 -91 1617 61 
Q 1341 213 1159 525 
z
M 3116 1747 
Q 3116 2381 2855 2742 
Q 2594 3103 2138 3103 
Q 1681 3103 1420 2742 
Q 1159 2381 1159 1747 
Q 1159 1113 1420 752 
Q 1681 391 2138 391 
Q 2594 391 2855 752 
Q 3116 1113 3116 1747 
z
" transform="scale(0.015625)"/>
      </defs>
      <use xlink:href="#DejaVuSans-6c"/>
      <use xlink:href="#DejaVuSans-6f" x="27.783203"/>
      <use xlink:href="#DejaVuSans-6f" x="88.964844"/>
      <use xlink:href="#DejaVuSans-70" x="150.146484"/>
     </g>
    </g>
    <g id="line2d_32">
     <path d="M 709.581875 131.456562 
L 719.581875 131.456562 
L 729.581875 131.456562 
" style="fill: none; stroke: #0000ff; stroke-width: 2; stroke-linecap: square"/>
    </g>
    <g id="text_10">
     <!-- dark -->
     <g transform="translate(737.581875 134.956562)scale(0.1 -0.1)">
      <defs>
       <path id="DejaVuSans-64" d="M 2906 2969 
L 2906 4863 
L 3481 4863 
L 3481 0 
L 2906 0 
L 2906 525 
Q 2725 213 2448 61 
Q 2172 -91 1784 -91 
Q 1150 -91 751 415 
Q 353 922 353 1747 
Q 353 2572 751 3078 
Q 1150 3584 1784 3584 
Q 2172 3584 2448 3432 
Q 2725 3281 2906 2969 
z
M 947 1747 
Q 947 1113 1208 752 
Q 1469 391 1925 391 
Q 2381 391 2643 752 
Q 2906 1113 2906 1747 
Q 2906 2381 2643 2742 
Q 2381 3103 1925 3103 
Q 1469 3103 1208 2742 
Q 947 2381 947 1747 
z
" transform="scale(0.015625)"/>
       <path id="DejaVuSans-61" d="M 2194 1759 
Q 1497 1759 1228 1600 
Q 959 1441 959 1056 
Q 959 750 1161 570 
Q 1363 391 1709 391 
Q 2188 391 2477 730 
Q 2766 1069 2766 1631 
L 2766 1759 
L 2194 1759 
z
M 3341 1997 
L 3341 0 
L 2766 0 
L 2766 531 
Q 2569 213 2275 61 
Q 1981 -91 1556 -91 
Q 1019 -91 701 211 
Q 384 513 384 1019 
Q 384 1609 779 1909 
Q 1175 2209 1959 2209 
L 2766 2209 
L 2766 2266 
Q 2766 2663 2505 2880 
Q 2244 3097 1772 3097 
Q 1472 3097 1187 3025 
Q 903 2953 641 2809 
L 641 3341 
Q 956 3463 1253 3523 
Q 1550 3584 1831 3584 
Q 2591 3584 2966 3190 
Q 3341 2797 3341 1997 
z
" transform="scale(0.015625)"/>
       <path id="DejaVuSans-72" d="M 2631 2963 
Q 2534 3019 2420 3045 
Q 2306 3072 2169 3072 
Q 1681 3072 1420 2755 
Q 1159 2438 1159 1844 
L 1159 0 
L 581 0 
L 581 3500 
L 1159 3500 
L 1159 2956 
Q 1341 3275 1631 3429 
Q 1922 3584 2338 3584 
Q 2397 3584 2469 3576 
Q 2541 3569 2628 3553 
L 2631 2963 
z
" transform="scale(0.015625)"/>
       <path id="DejaVuSans-6b" d="M 581 4863 
L 1159 4863 
L 1159 1991 
L 2875 3500 
L 3609 3500 
L 1753 1863 
L 3688 0 
L 2938 0 
L 1159 1709 
L 1159 0 
L 581 0 
L 581 4863 
z
" transform="scale(0.015625)"/>
      </defs>
      <use xlink:href="#DejaVuSans-64"/>
      <use xlink:href="#DejaVuSans-61" x="63.476562"/>
      <use xlink:href="#DejaVuSans-72" x="124.755859"/>
      <use xlink:href="#DejaVuSans-6b" x="165.869141"/>
     </g>
    </g>
    <g id="line2d_33">
     <path d="M 709.581875 146.134687 
L 719.581875 146.134687 
L 729.581875 146.134687 
" style="fill: none; stroke: #ff0000; stroke-width: 2; stroke-linecap: square"/>
    </g>
    <g id="text_11">
     <!-- stat -->
     <g transform="translate(737.581875 149.634687)scale(0.1 -0.1)">
      <defs>
       <path id="DejaVuSans-73" d="M 2834 3397 
L 2834 2853 
Q 2591 2978 2328 3040 
Q 2066 3103 1784 3103 
Q 1356 3103 1142 2972 
Q 928 2841 928 2578 
Q 928 2378 1081 2264 
Q 1234 2150 1697 2047 
L 1894 2003 
Q 2506 1872 2764 1633 
Q 3022 1394 3022 966 
Q 3022 478 2636 193 
Q 2250 -91 1575 -91 
Q 1294 -91 989 -36 
Q 684 19 347 128 
L 347 722 
Q 666 556 975 473 
Q 1284 391 1588 391 
Q 1994 391 2212 530 
Q 2431 669 2431 922 
Q 2431 1156 2273 1281 
Q 2116 1406 1581 1522 
L 1381 1569 
Q 847 1681 609 1914 
Q 372 2147 372 2553 
Q 372 3047 722 3315 
Q 1072 3584 1716 3584 
Q 2034 3584 2315 3537 
Q 2597 3491 2834 3397 
z
" transform="scale(0.015625)"/>
       <path id="DejaVuSans-74" d="M 1172 4494 
L 1172 3500 
L 2356 3500 
L 2356 3053 
L 1172 3053 
L 1172 1153 
Q 1172 725 1289 603 
Q 1406 481 1766 481 
L 2356 481 
L 2356 0 
L 1766 0 
Q 1100 0 847 248 
Q 594 497 594 1153 
L 594 3053 
L 172 3053 
L 172 3500 
L 594 3500 
L 594 4494 
L 1172 4494 
z
" transform="scale(0.015625)"/>
      </defs>
      <use xlink:href="#DejaVuSans-73"/>
      <use xlink:href="#DejaVuSans-74" x="52.099609"/>
      <use xlink:href="#DejaVuSans-61" x="91.308594"/>
      <use xlink:href="#DejaVuSans-74" x="152.587891"/>
     </g>
    </g>
   </g>
  </g>
 </g>
 <defs>
  <clipPath id="p4312b3becc">
   <path d="M 768.96 429.84 
C 768.96 387.009061 760.523239 344.594599 744.132548 305.023972 
C 727.741858 265.453344 703.715995 229.496099 673.429948 199.210052 
C 643.143901 168.924005 607.186656 144.898142 567.616028 128.507452 
C 528.045401 112.116761 485.630939 103.68 442.8 103.68 
C 399.969061 103.68 357.554599 112.116761 317.983972 128.507452 
C 278.413344 144.898142 242.456099 168.924005 212.170052 199.210052 
C 181.884005 229.496099 157.858142 265.453344 141.467452 305.023972 
C 125.076761 344.594599 116.64 387.009061 116.64 429.84 
C 116.64 472.670939 125.076761 515.085401 141.467452 554.656028 
C 157.858142 594.226656 181.884005 630.183901 212.170052 660.469948 
C 242.456099 690.755995 278.413344 714.781858 317.983972 731.172548 
C 357.554599 747.563239 399.969061 756 442.8 756 
C 485.630939 756 528.045401 747.563239 567.616028 731.172548 
C 607.186656 714.781858 643.143901 690.755995 673.429948 660.469948 
C 703.715995 630.183901 727.741858 594.226656 744.132548 554.656028 
C 760.523239 515.085401 768.96 472.670939 768.96 429.84 
M 442.8 429.84 
C 442.8 429.84 442.8 429.84 442.8 429.84 
C 442.8 429.84 442.8 429.84 442.8 429.84 
C 442.8 429.84 442.8 429.84 442.8 429.84 
C 442.8 429.84 442.8 429.84 442.8 429.84 
C 442.8 429.84 442.8 429.84 442.8 429.84 
C 442.8 429.84 442.8 429.84 442.8 429.84 
C 442.8 429.84 442.8 429.84 442.8 429.84 
C 442.8 429.84 442.8 429.84 442.8 429.84 
C 442.8 429.84 442.8 429.84 442.8 429.84 
C 442.8 429.84 442.8 429.84 442.8 429.84 
C 442.8 429.84 442.8 429.84 442.8 429.84 
C 442.8 429.84 442.8 429.84 442.8 429.84 
C 442.8 429.84 442.8 429.84 442.8 429.84 
C 442.8 429.84 442.8 429.84 442.8 429.84 
C 442.8 429.84 442.8 429.84 442.8 429.84 
C 442.8 429.84 442.8 429.84 442.8 429.84 
M 768.96 429.84 
z
"/>
  </clipPath>
 </defs>
</svg>
