<?xml version="1.0" encoding="utf-8" standalone="no"?>
<!DOCTYPE svg PUBLIC "-//W3C//DTD SVG 1.1//EN"
  "http://www.w3.org/Graphics/SVG/1.1/DTD/svg11.dtd">
<svg xmlns:xlink="http://www.w3.org/1999/xlink" width="864pt" height="864pt" viewBox="0 0 864 864" xmlns="http://www.w3.org/2000/svg" version="1.1">
 <metadata>
  <rdf:RDF xmlns:dc="http://purl.org/dc/elements/1.1/" xmlns:cc="http://creativecommons.org/ns#" xmlns:rdf="http://www.w3.org/1999/02/22-rdf-syntax-ns#">
   <cc:Work>
    <dc:type rdf:resource="http://purl.org/dc/dcmitype/StillImage"/>
    <dc:date>2024-04-08T02:00:29.730343</dc:date>
    <dc:format>image/svg+xml</dc:format>
    <dc:creator>
     <cc:Agent>
      <dc:title>Matplotlib v3.5.1, https://matplotlib.org/</dc:title>
     </cc:Agent>
    </dc:creator>
   </cc:Work>
  </rdf:RDF>
 </metadata>
 <defs>
  <style type="text/css">*{stroke-linejoin: round; stroke-linecap: butt}</style>
 </defs>
 <g id="figure_1">
  <g id="patch_1">
   <path d="M 0 864 
L 864 864 
L 864 0 
L 0 0 
z
" style="fill: #ffffff"/>
  </g>
  <g id="axes_1">
   <g id="patch_2">
    <path d="M 768.96 429.84 
C 768.96 387.009061 760.523239 344.594599 744.132548 305.023972 
C 727.741858 265.453344 703.715995 229.496099 673.429948 199.210052 
C 643.143901 168.924005 607.186656 144.898142 567.616028 128.507452 
C 528.045401 112.116761 485.630939 103.68 442.8 103.68 
C 399.969061 103.68 357.554599 112.116761 317.983972 128.507452 
C 278.413344 144.898142 242.456099 168.924005 212.170052 199.210052 
C 181.884005 229.496099 157.858142 265.453344 141.467452 305.023972 
C 125.076761 344.594599 116.64 387.009061 116.64 429.84 
C 116.64 472.670939 125.076761 515.085401 141.467452 554.656028 
C 157.858142 594.226656 181.884005 630.183901 212.170052 660.469948 
C 242.456099 690.755995 278.413344 714.781858 317.983972 731.172548 
C 357.554599 747.563239 399.969061 756 442.8 756 
C 485.630939 756 528.045401 747.563239 567.616028 731.172548 
C 607.186656 714.781858 643.143901 690.755995 673.429948 660.469948 
C 703.715995 630.183901 727.741858 594.226656 744.132548 554.656028 
C 760.523239 515.085401 768.96 472.670939 768.96 429.84 
M 442.8 429.84 
C 442.8 429.84 442.8 429.84 442.8 429.84 
C 442.8 429.84 442.8 429.84 442.8 429.84 
C 442.8 429.84 442.8 429.84 442.8 429.84 
C 442.8 429.84 442.8 429.84 442.8 429.84 
C 442.8 429.84 442.8 429.84 442.8 429.84 
C 442.8 429.84 442.8 429.84 442.8 429.84 
C 442.8 429.84 442.8 429.84 442.8 429.84 
C 442.8 429.84 442.8 429.84 442.8 429.84 
C 442.8 429.84 442.8 429.84 442.8 429.84 
C 442.8 429.84 442.8 429.84 442.8 429.84 
C 442.8 429.84 442.8 429.84 442.8 429.84 
C 442.8 429.84 442.8 429.84 442.8 429.84 
C 442.8 429.84 442.8 429.84 442.8 429.84 
C 442.8 429.84 442.8 429.84 442.8 429.84 
C 442.8 429.84 442.8 429.84 442.8 429.84 
C 442.8 429.84 442.8 429.84 442.8 429.84 
M 768.96 429.84 
z
" style="fill: #ffffff"/>
   </g>
   <g id="matplotlib.axis_1">
    <g id="xtick_1">
     <g id="line2d_1">
      <path d="M 442.8 429.84 
L 442.8 103.68 
" clip-path="url(#p3b710e3f7f)" style="fill: none; stroke: #b0b0b0; stroke-width: 0.8; stroke-linecap: square"/>
     </g>
     <g id="text_1">
      <!-- 0° -->
      <g transform="translate(437.11875 92.439375)scale(0.1 -0.1)">
       <defs>
        <path id="DejaVuSans-30" d="M 2034 4250 
Q 1547 4250 1301 3770 
Q 1056 3291 1056 2328 
Q 1056 1369 1301 889 
Q 1547 409 2034 409 
Q 2525 409 2770 889 
Q 3016 1369 3016 2328 
Q 3016 3291 2770 3770 
Q 2525 4250 2034 4250 
z
M 2034 4750 
Q 2819 4750 3233 4129 
Q 3647 3509 3647 2328 
Q 3647 1150 3233 529 
Q 2819 -91 2034 -91 
Q 1250 -91 836 529 
Q 422 1150 422 2328 
Q 422 3509 836 4129 
Q 1250 4750 2034 4750 
z
" transform="scale(0.015625)"/>
        <path id="DejaVuSans-b0" d="M 1600 4347 
Q 1350 4347 1178 4173 
Q 1006 4000 1006 3750 
Q 1006 3503 1178 3333 
Q 1350 3163 1600 3163 
Q 1850 3163 2022 3333 
Q 2194 3503 2194 3750 
Q 2194 3997 2020 4172 
Q 1847 4347 1600 4347 
z
M 1600 4750 
Q 1800 4750 1984 4673 
Q 2169 4597 2303 4453 
Q 2447 4313 2519 4134 
Q 2591 3956 2591 3750 
Q 2591 3338 2302 3052 
Q 2013 2766 1594 2766 
Q 1172 2766 890 3047 
Q 609 3328 609 3750 
Q 609 4169 896 4459 
Q 1184 4750 1600 4750 
z
" transform="scale(0.015625)"/>
       </defs>
       <use xlink:href="#DejaVuSans-30"/>
       <use xlink:href="#DejaVuSans-b0" x="63.623047"/>
      </g>
     </g>
    </g>
    <g id="xtick_2">
     <g id="line2d_2">
      <path d="M 442.8 429.84 
L 212.170052 199.210052 
" clip-path="url(#p3b710e3f7f)" style="fill: none; stroke: #b0b0b0; stroke-width: 0.8; stroke-linecap: square"/>
     </g>
     <g id="text_2">
      <!-- 45° -->
      <g transform="translate(193.408057 192.069932)scale(0.1 -0.1)">
       <defs>
        <path id="DejaVuSans-34" d="M 2419 4116 
L 825 1625 
L 2419 1625 
L 2419 4116 
z
M 2253 4666 
L 3047 4666 
L 3047 1625 
L 3713 1625 
L 3713 1100 
L 3047 1100 
L 3047 0 
L 2419 0 
L 2419 1100 
L 313 1100 
L 313 1709 
L 2253 4666 
z
" transform="scale(0.015625)"/>
        <path id="DejaVuSans-35" d="M 691 4666 
L 3169 4666 
L 3169 4134 
L 1269 4134 
L 1269 2991 
Q 1406 3038 1543 3061 
Q 1681 3084 1819 3084 
Q 2600 3084 3056 2656 
Q 3513 2228 3513 1497 
Q 3513 744 3044 326 
Q 2575 -91 1722 -91 
Q 1428 -91 1123 -41 
Q 819 9 494 109 
L 494 744 
Q 775 591 1075 516 
Q 1375 441 1709 441 
Q 2250 441 2565 725 
Q 2881 1009 2881 1497 
Q 2881 1984 2565 2268 
Q 2250 2553 1709 2553 
Q 1456 2553 1204 2497 
Q 953 2441 691 2322 
L 691 4666 
z
" transform="scale(0.015625)"/>
       </defs>
       <use xlink:href="#DejaVuSans-34"/>
       <use xlink:href="#DejaVuSans-35" x="63.623047"/>
       <use xlink:href="#DejaVuSans-b0" x="127.246094"/>
      </g>
     </g>
    </g>
    <g id="xtick_3">
     <g id="line2d_3">
      <path d="M 442.8 429.84 
L 116.64 429.84 
" clip-path="url(#p3b710e3f7f)" style="fill: none; stroke: #b0b0b0; stroke-width: 0.8; stroke-linecap: square"/>
     </g>
     <g id="text_3">
      <!-- 90° -->
      <g transform="translate(93.7775 432.599375)scale(0.1 -0.1)">
       <defs>
        <path id="DejaVuSans-39" d="M 703 97 
L 703 672 
Q 941 559 1184 500 
Q 1428 441 1663 441 
Q 2288 441 2617 861 
Q 2947 1281 2994 2138 
Q 2813 1869 2534 1725 
Q 2256 1581 1919 1581 
Q 1219 1581 811 2004 
Q 403 2428 403 3163 
Q 403 3881 828 4315 
Q 1253 4750 1959 4750 
Q 2769 4750 3195 4129 
Q 3622 3509 3622 2328 
Q 3622 1225 3098 567 
Q 2575 -91 1691 -91 
Q 1453 -91 1209 -44 
Q 966 3 703 97 
z
M 1959 2075 
Q 2384 2075 2632 2365 
Q 2881 2656 2881 3163 
Q 2881 3666 2632 3958 
Q 2384 4250 1959 4250 
Q 1534 4250 1286 3958 
Q 1038 3666 1038 3163 
Q 1038 2656 1286 2365 
Q 1534 2075 1959 2075 
z
" transform="scale(0.015625)"/>
       </defs>
       <use xlink:href="#DejaVuSans-39"/>
       <use xlink:href="#DejaVuSans-30" x="63.623047"/>
       <use xlink:href="#DejaVuSans-b0" x="127.246094"/>
      </g>
     </g>
    </g>
    <g id="xtick_4">
     <g id="line2d_4">
      <path d="M 442.8 429.84 
L 212.170052 660.469948 
" clip-path="url(#p3b710e3f7f)" style="fill: none; stroke: #b0b0b0; stroke-width: 0.8; stroke-linecap: square"/>
     </g>
     <g id="text_4">
      <!-- 135° -->
      <g transform="translate(190.226807 673.128818)scale(0.1 -0.1)">
       <defs>
        <path id="DejaVuSans-31" d="M 794 531 
L 1825 531 
L 1825 4091 
L 703 3866 
L 703 4441 
L 1819 4666 
L 2450 4666 
L 2450 531 
L 3481 531 
L 3481 0 
L 794 0 
L 794 531 
z
" transform="scale(0.015625)"/>
        <path id="DejaVuSans-33" d="M 2597 2516 
Q 3050 2419 3304 2112 
Q 3559 1806 3559 1356 
Q 3559 666 3084 287 
Q 2609 -91 1734 -91 
Q 1441 -91 1130 -33 
Q 819 25 488 141 
L 488 750 
Q 750 597 1062 519 
Q 1375 441 1716 441 
Q 2309 441 2620 675 
Q 2931 909 2931 1356 
Q 2931 1769 2642 2001 
Q 2353 2234 1838 2234 
L 1294 2234 
L 1294 2753 
L 1863 2753 
Q 2328 2753 2575 2939 
Q 2822 3125 2822 3475 
Q 2822 3834 2567 4026 
Q 2313 4219 1838 4219 
Q 1578 4219 1281 4162 
Q 984 4106 628 3988 
L 628 4550 
Q 988 4650 1302 4700 
Q 1616 4750 1894 4750 
Q 2613 4750 3031 4423 
Q 3450 4097 3450 3541 
Q 3450 3153 3228 2886 
Q 3006 2619 2597 2516 
z
" transform="scale(0.015625)"/>
       </defs>
       <use xlink:href="#DejaVuSans-31"/>
       <use xlink:href="#DejaVuSans-33" x="63.623047"/>
       <use xlink:href="#DejaVuSans-35" x="127.246094"/>
       <use xlink:href="#DejaVuSans-b0" x="190.869141"/>
      </g>
     </g>
    </g>
    <g id="xtick_5">
     <g id="line2d_5">
      <path d="M 442.8 429.84 
L 442.8 756 
" clip-path="url(#p3b710e3f7f)" style="fill: none; stroke: #b0b0b0; stroke-width: 0.8; stroke-linecap: square"/>
     </g>
     <g id="text_5">
      <!-- 180° -->
      <g transform="translate(430.75625 772.759375)scale(0.1 -0.1)">
       <defs>
        <path id="DejaVuSans-38" d="M 2034 2216 
Q 1584 2216 1326 1975 
Q 1069 1734 1069 1313 
Q 1069 891 1326 650 
Q 1584 409 2034 409 
Q 2484 409 2743 651 
Q 3003 894 3003 1313 
Q 3003 1734 2745 1975 
Q 2488 2216 2034 2216 
z
M 1403 2484 
Q 997 2584 770 2862 
Q 544 3141 544 3541 
Q 544 4100 942 4425 
Q 1341 4750 2034 4750 
Q 2731 4750 3128 4425 
Q 3525 4100 3525 3541 
Q 3525 3141 3298 2862 
Q 3072 2584 2669 2484 
Q 3125 2378 3379 2068 
Q 3634 1759 3634 1313 
Q 3634 634 3220 271 
Q 2806 -91 2034 -91 
Q 1263 -91 848 271 
Q 434 634 434 1313 
Q 434 1759 690 2068 
Q 947 2378 1403 2484 
z
M 1172 3481 
Q 1172 3119 1398 2916 
Q 1625 2713 2034 2713 
Q 2441 2713 2670 2916 
Q 2900 3119 2900 3481 
Q 2900 3844 2670 4047 
Q 2441 4250 2034 4250 
Q 1625 4250 1398 4047 
Q 1172 3844 1172 3481 
z
" transform="scale(0.015625)"/>
       </defs>
       <use xlink:href="#DejaVuSans-31"/>
       <use xlink:href="#DejaVuSans-38" x="63.623047"/>
       <use xlink:href="#DejaVuSans-30" x="127.246094"/>
       <use xlink:href="#DejaVuSans-b0" x="190.869141"/>
      </g>
     </g>
    </g>
    <g id="xtick_6">
     <g id="line2d_6">
      <path d="M 442.8 429.84 
L 673.429948 660.469948 
" clip-path="url(#p3b710e3f7f)" style="fill: none; stroke: #b0b0b0; stroke-width: 0.8; stroke-linecap: square"/>
     </g>
     <g id="text_6">
      <!-- 225° -->
      <g transform="translate(671.285693 673.128818)scale(0.1 -0.1)">
       <defs>
        <path id="DejaVuSans-32" d="M 1228 531 
L 3431 531 
L 3431 0 
L 469 0 
L 469 531 
Q 828 903 1448 1529 
Q 2069 2156 2228 2338 
Q 2531 2678 2651 2914 
Q 2772 3150 2772 3378 
Q 2772 3750 2511 3984 
Q 2250 4219 1831 4219 
Q 1534 4219 1204 4116 
Q 875 4013 500 3803 
L 500 4441 
Q 881 4594 1212 4672 
Q 1544 4750 1819 4750 
Q 2544 4750 2975 4387 
Q 3406 4025 3406 3419 
Q 3406 3131 3298 2873 
Q 3191 2616 2906 2266 
Q 2828 2175 2409 1742 
Q 1991 1309 1228 531 
z
" transform="scale(0.015625)"/>
       </defs>
       <use xlink:href="#DejaVuSans-32"/>
       <use xlink:href="#DejaVuSans-32" x="63.623047"/>
       <use xlink:href="#DejaVuSans-35" x="127.246094"/>
       <use xlink:href="#DejaVuSans-b0" x="190.869141"/>
      </g>
     </g>
    </g>
    <g id="xtick_7">
     <g id="line2d_7">
      <path d="M 442.8 429.84 
L 768.96 429.84 
" clip-path="url(#p3b710e3f7f)" style="fill: none; stroke: #b0b0b0; stroke-width: 0.8; stroke-linecap: square"/>
     </g>
     <g id="text_7">
      <!-- 270° -->
      <g transform="translate(770.91625 432.599375)scale(0.1 -0.1)">
       <defs>
        <path id="DejaVuSans-37" d="M 525 4666 
L 3525 4666 
L 3525 4397 
L 1831 0 
L 1172 0 
L 2766 4134 
L 525 4134 
L 525 4666 
z
" transform="scale(0.015625)"/>
       </defs>
       <use xlink:href="#DejaVuSans-32"/>
       <use xlink:href="#DejaVuSans-37" x="63.623047"/>
       <use xlink:href="#DejaVuSans-30" x="127.246094"/>
       <use xlink:href="#DejaVuSans-b0" x="190.869141"/>
      </g>
     </g>
    </g>
    <g id="xtick_8">
     <g id="line2d_8">
      <path d="M 442.8 429.84 
L 673.429948 199.210052 
" clip-path="url(#p3b710e3f7f)" style="fill: none; stroke: #b0b0b0; stroke-width: 0.8; stroke-linecap: square"/>
     </g>
     <g id="text_8">
      <!-- 315° -->
      <g transform="translate(671.285693 192.069932)scale(0.1 -0.1)">
       <use xlink:href="#DejaVuSans-33"/>
       <use xlink:href="#DejaVuSans-31" x="63.623047"/>
       <use xlink:href="#DejaVuSans-35" x="127.246094"/>
       <use xlink:href="#DejaVuSans-b0" x="190.869141"/>
      </g>
     </g>
    </g>
   </g>
   <g id="matplotlib.axis_2">
    <g id="ytick_1">
     <g id="line2d_9">
      <path d="M 442.8 393.067894 
C 437.971131 393.067894 433.189217 394.019076 428.727924 395.867004 
C 424.266631 397.714932 420.212721 400.423669 416.798195 403.838195 
C 413.383669 407.252721 410.674932 411.306631 408.827004 415.767924 
C 406.979076 420.229217 406.027894 425.011131 406.027894 429.84 
C 406.027894 434.668869 406.979076 439.450783 408.827004 443.912076 
C 410.674932 448.373369 413.383669 452.427279 416.798195 455.841805 
C 420.212721 459.256331 424.266631 461.965068 428.727924 463.812996 
C 433.189217 465.660924 437.971131 466.612106 442.8 466.612106 
C 447.628869 466.612106 452.410783 465.660924 456.872076 463.812996 
C 461.333369 461.965068 465.387279 459.256331 468.801805 455.841805 
C 472.216331 452.427279 474.925068 448.373369 476.772996 443.912076 
C 478.620924 439.450783 479.572106 434.668869 479.572106 429.84 
C 479.572106 425.011131 478.620924 420.229217 476.772996 415.767924 
C 474.925068 411.306631 472.216331 407.252721 468.801805 403.838195 
C 465.387279 400.423669 461.333369 397.714932 456.872076 395.867004 
C 452.410783 394.019076 447.628869 393.067894 442.8 393.067894 
" clip-path="url(#p3b710e3f7f)" style="fill: none; stroke: #b0b0b0; stroke-width: 0.8; stroke-linecap: square"/>
     </g>
    </g>
    <g id="ytick_2">
     <g id="line2d_10">
      <path d="M 442.8 356.295789 
C 433.142263 356.295789 423.578435 358.198152 414.655849 361.894009 
C 405.733263 365.589865 397.625441 371.007338 390.79639 377.83639 
C 383.967338 384.665441 378.549865 392.773263 374.854009 401.695849 
C 371.158152 410.618435 369.255789 420.182263 369.255789 429.84 
C 369.255789 439.497737 371.158152 449.061565 374.854009 457.984151 
C 378.549865 466.906737 383.967338 475.014559 390.79639 481.84361 
C 397.625441 488.672662 405.733263 494.090135 414.655849 497.785991 
C 423.578435 501.481848 433.142263 503.384211 442.8 503.384211 
C 452.457737 503.384211 462.021565 501.481848 470.944151 497.785991 
C 479.866737 494.090135 487.974559 488.672662 494.80361 481.84361 
C 501.632662 475.014559 507.050135 466.906737 510.745991 457.984151 
C 514.441848 449.061565 516.344211 439.497737 516.344211 429.84 
C 516.344211 420.182263 514.441848 410.618435 510.745991 401.695849 
C 507.050135 392.773263 501.632662 384.665441 494.80361 377.83639 
C 487.974559 371.007338 479.866737 365.589865 470.944151 361.894009 
C 462.021565 358.198152 452.457737 356.295789 442.8 356.295789 
" clip-path="url(#p3b710e3f7f)" style="fill: none; stroke: #b0b0b0; stroke-width: 0.8; stroke-linecap: square"/>
     </g>
    </g>
    <g id="ytick_3">
     <g id="line2d_11">
      <path d="M 442.8 319.523683 
C 428.313394 319.523683 413.967652 322.377229 400.583773 327.921013 
C 387.199894 333.464797 375.038162 341.591007 364.794584 351.834584 
C 354.551007 362.078162 346.424797 374.239894 340.881013 387.623773 
C 335.337229 401.007652 332.483683 415.353394 332.483683 429.84 
C 332.483683 444.326606 335.337229 458.672348 340.881013 472.056227 
C 346.424797 485.440106 354.551007 497.601838 364.794584 507.845416 
C 375.038162 518.088993 387.199894 526.215203 400.583773 531.758987 
C 413.967652 537.302771 428.313394 540.156317 442.8 540.156317 
C 457.286606 540.156317 471.632348 537.302771 485.016227 531.758987 
C 498.400106 526.215203 510.561838 518.088993 520.805416 507.845416 
C 531.048993 497.601838 539.175203 485.440106 544.718987 472.056227 
C 550.262771 458.672348 553.116317 444.326606 553.116317 429.84 
C 553.116317 415.353394 550.262771 401.007652 544.718987 387.623773 
C 539.175203 374.239894 531.048993 362.078162 520.805416 351.834584 
C 510.561838 341.591007 498.400106 333.464797 485.016227 327.921013 
C 471.632348 322.377229 457.286606 319.523683 442.8 319.523683 
" clip-path="url(#p3b710e3f7f)" style="fill: none; stroke: #b0b0b0; stroke-width: 0.8; stroke-linecap: square"/>
     </g>
    </g>
    <g id="ytick_4">
     <g id="line2d_12">
      <path d="M 442.8 282.751578 
C 423.484525 282.751578 404.356869 286.556305 386.511698 293.948017 
C 368.666526 301.339729 352.450882 312.174676 338.792779 325.832779 
C 325.134676 339.490882 314.299729 355.706526 306.908017 373.551698 
C 299.516305 391.396869 295.711578 410.524525 295.711578 429.84 
C 295.711578 449.155475 299.516305 468.283131 306.908017 486.128302 
C 314.299729 503.973474 325.134676 520.189118 338.792779 533.847221 
C 352.450882 547.505324 368.666526 558.340271 386.511698 565.731983 
C 404.356869 573.123695 423.484525 576.928422 442.8 576.928422 
C 462.115475 576.928422 481.243131 573.123695 499.088302 565.731983 
C 516.933474 558.340271 533.149118 547.505324 546.807221 533.847221 
C 560.465324 520.189118 571.300271 503.973474 578.691983 486.128302 
C 586.083695 468.283131 589.888422 449.155475 589.888422 429.84 
C 589.888422 410.524525 586.083695 391.396869 578.691983 373.551698 
C 571.300271 355.706526 560.465324 339.490882 546.807221 325.832779 
C 533.149118 312.174676 516.933474 301.339729 499.088302 293.948017 
C 481.243131 286.556305 462.115475 282.751578 442.8 282.751578 
" clip-path="url(#p3b710e3f7f)" style="fill: none; stroke: #b0b0b0; stroke-width: 0.8; stroke-linecap: square"/>
     </g>
    </g>
    <g id="ytick_5">
     <g id="line2d_13">
      <path d="M 442.8 245.979472 
C 418.655657 245.979472 394.746087 250.735381 372.439622 259.975021 
C 350.133157 269.214661 329.863603 282.758345 312.790974 299.830974 
C 295.718345 316.903603 282.174661 337.173157 272.935021 359.479622 
C 263.695381 381.786087 258.939472 405.695657 258.939472 429.84 
C 258.939472 453.984343 263.695381 477.893913 272.935021 500.200378 
C 282.174661 522.506843 295.718345 542.776397 312.790974 559.849026 
C 329.863603 576.921655 350.133157 590.465339 372.439622 599.704979 
C 394.746087 608.944619 418.655657 613.700528 442.8 613.700528 
C 466.944343 613.700528 490.853913 608.944619 513.160378 599.704979 
C 535.466843 590.465339 555.736397 576.921655 572.809026 559.849026 
C 589.881655 542.776397 603.425339 522.506843 612.664979 500.200378 
C 621.904619 477.893913 626.660528 453.984343 626.660528 429.84 
C 626.660528 405.695657 621.904619 381.786087 612.664979 359.479622 
C 603.425339 337.173157 589.881655 316.903603 572.809026 299.830974 
C 555.736397 282.758345 535.466843 269.214661 513.160378 259.975021 
C 490.853913 250.735381 466.944343 245.979472 442.8 245.979472 
" clip-path="url(#p3b710e3f7f)" style="fill: none; stroke: #b0b0b0; stroke-width: 0.8; stroke-linecap: square"/>
     </g>
    </g>
    <g id="ytick_6">
     <g id="line2d_14">
      <path d="M 442.8 209.207366 
C 413.826788 209.207366 385.135304 214.914457 358.367546 226.002026 
C 331.599789 237.089594 307.276323 253.342014 286.789169 273.829169 
C 266.302014 294.316323 250.049594 318.639789 238.962026 345.407546 
C 227.874457 372.175304 222.167366 400.866788 222.167366 429.84 
C 222.167366 458.813212 227.874457 487.504696 238.962026 514.272454 
C 250.049594 541.040211 266.302014 565.363677 286.789169 585.850831 
C 307.276323 606.337986 331.599789 622.590406 358.367546 633.677974 
C 385.135304 644.765543 413.826788 650.472634 442.8 650.472634 
C 471.773212 650.472634 500.464696 644.765543 527.232454 633.677974 
C 554.000211 622.590406 578.323677 606.337986 598.810831 585.850831 
C 619.297986 565.363677 635.550406 541.040211 646.637974 514.272454 
C 657.725543 487.504696 663.432634 458.813212 663.432634 429.84 
C 663.432634 400.866788 657.725543 372.175304 646.637974 345.407546 
C 635.550406 318.639789 619.297986 294.316323 598.810831 273.829169 
C 578.323677 253.342014 554.000211 237.089594 527.232454 226.002026 
C 500.464696 214.914457 471.773212 209.207366 442.8 209.207366 
" clip-path="url(#p3b710e3f7f)" style="fill: none; stroke: #b0b0b0; stroke-width: 0.8; stroke-linecap: square"/>
     </g>
    </g>
    <g id="ytick_7">
     <g id="line2d_15">
      <path d="M 442.8 172.435261 
C 408.997919 172.435261 375.524521 179.093534 344.295471 192.02903 
C 313.06642 204.964526 284.689044 223.925683 260.787363 247.827363 
C 236.885683 271.729044 217.924526 300.10642 204.98903 331.335471 
C 192.053534 362.564521 185.395261 396.037919 185.395261 429.84 
C 185.395261 463.642081 192.053534 497.115479 204.98903 528.344529 
C 217.924526 559.57358 236.885683 587.950956 260.787363 611.852637 
C 284.689044 635.754317 313.06642 654.715474 344.295471 667.65097 
C 375.524521 680.586466 408.997919 687.244739 442.8 687.244739 
C 476.602081 687.244739 510.075479 680.586466 541.304529 667.65097 
C 572.53358 654.715474 600.910956 635.754317 624.812637 611.852637 
C 648.714317 587.950956 667.675474 559.57358 680.61097 528.344529 
C 693.546466 497.115479 700.204739 463.642081 700.204739 429.84 
C 700.204739 396.037919 693.546466 362.564521 680.61097 331.335471 
C 667.675474 300.10642 648.714317 271.729044 624.812637 247.827363 
C 600.910956 223.925683 572.53358 204.964526 541.304529 192.02903 
C 510.075479 179.093534 476.602081 172.435261 442.8 172.435261 
" clip-path="url(#p3b710e3f7f)" style="fill: none; stroke: #b0b0b0; stroke-width: 0.8; stroke-linecap: square"/>
     </g>
    </g>
    <g id="ytick_8">
     <g id="line2d_16">
      <path d="M 442.8 135.663155 
C 404.169051 135.663155 365.913739 143.27261 330.223395 158.056034 
C 294.533052 172.839458 262.101764 194.509352 234.785558 221.825558 
C 207.469352 249.141764 185.799458 281.573052 171.016034 317.263395 
C 156.23261 352.953739 148.623155 391.209051 148.623155 429.84 
C 148.623155 468.470949 156.23261 506.726261 171.016034 542.416605 
C 185.799458 578.106948 207.469352 610.538236 234.785558 637.854442 
C 262.101764 665.170648 294.533052 686.840542 330.223395 701.623966 
C 365.913739 716.40739 404.169051 724.016845 442.8 724.016845 
C 481.430949 724.016845 519.686261 716.40739 555.376605 701.623966 
C 591.066948 686.840542 623.498236 665.170648 650.814442 637.854442 
C 678.130648 610.538236 699.800542 578.106948 714.583966 542.416605 
C 729.36739 506.726261 736.976845 468.470949 736.976845 429.84 
C 736.976845 391.209051 729.36739 352.953739 714.583966 317.263395 
C 699.800542 281.573052 678.130648 249.141764 650.814442 221.825558 
C 623.498236 194.509352 591.066948 172.839458 555.376605 158.056034 
C 519.686261 143.27261 481.430949 135.663155 442.8 135.663155 
" clip-path="url(#p3b710e3f7f)" style="fill: none; stroke: #b0b0b0; stroke-width: 0.8; stroke-linecap: square"/>
     </g>
    </g>
   </g>
   <g id="line2d_17">
    <path d="M 442.8 429.84 
L 440.108515 413.256154 
" clip-path="url(#p3b710e3f7f)" style="fill: none; stroke: #0000ff; stroke-width: 1.5; stroke-linecap: square"/>
   </g>
   <g id="line2d_18">
    <path d="M 442.8 429.84 
L 743.530348 507.630536 
" clip-path="url(#p3b710e3f7f)" style="fill: none; stroke: #008000; stroke-width: 1.5; stroke-linecap: square"/>
   </g>
   <g id="line2d_19">
    <path d="M 442.8 429.84 
L 454.615364 120.106245 
" clip-path="url(#p3b710e3f7f)" style="fill: none; stroke: #ff0000; stroke-width: 1.5; stroke-linecap: square"/>
   </g>
   <g id="patch_3">
    <path d="M 442.8 103.68 
C 399.969061 103.68 357.554599 112.116761 317.983972 128.507452 
C 278.413344 144.898142 242.456099 168.924005 212.170052 199.210052 
C 181.884005 229.496099 157.858142 265.453344 141.467452 305.023972 
C 125.076761 344.594599 116.64 387.009061 116.64 429.84 
C 116.64 472.670939 125.076761 515.085401 141.467452 554.656028 
C 157.858142 594.226656 181.884005 630.183901 212.170052 660.469948 
C 242.456099 690.755995 278.413344 714.781858 317.983972 731.172548 
C 357.554599 747.563239 399.969061 756 442.8 756 
C 485.630939 756 528.045401 747.563239 567.616028 731.172548 
C 607.186656 714.781858 643.143901 690.755995 673.429948 660.469948 
C 703.715995 630.183901 727.741858 594.226656 744.132548 554.656028 
C 760.523239 515.085401 768.96 472.670939 768.96 429.84 
C 768.96 387.009061 760.523239 344.594599 744.132548 305.023972 
C 727.741858 265.453344 703.715995 229.496099 673.429948 199.210052 
C 643.143901 168.924005 607.186656 144.898142 567.616028 128.507452 
C 528.045401 112.116761 485.630939 103.68 442.8 103.68 
" style="fill: none; stroke: #000000; stroke-width: 0.8; stroke-linejoin: miter; stroke-linecap: square"/>
   </g>
   <g id="legend_1">
    <g id="patch_4">
     <path d="M 701.219375 155.714375 
L 761.96 155.714375 
Q 763.96 155.714375 763.96 153.714375 
L 763.96 110.68 
Q 763.96 108.68 761.96 108.68 
L 701.219375 108.68 
Q 699.219375 108.68 699.219375 110.68 
L 699.219375 153.714375 
Q 699.219375 155.714375 701.219375 155.714375 
z
" style="fill: #ffffff; opacity: 0.8; stroke: #cccccc; stroke-linejoin: miter"/>
    </g>
    <g id="line2d_20">
     <path d="M 703.219375 116.778437 
L 713.219375 116.778437 
L 723.219375 116.778437 
" style="fill: none; stroke: #0000ff; stroke-width: 1.5; stroke-linecap: square"/>
    </g>
    <g id="text_9">
     <!-- dark1 -->
     <g transform="translate(731.219375 120.278437)scale(0.1 -0.1)">
      <defs>
       <path id="DejaVuSans-64" d="M 2906 2969 
L 2906 4863 
L 3481 4863 
L 3481 0 
L 2906 0 
L 2906 525 
Q 2725 213 2448 61 
Q 2172 -91 1784 -91 
Q 1150 -91 751 415 
Q 353 922 353 1747 
Q 353 2572 751 3078 
Q 1150 3584 1784 3584 
Q 2172 3584 2448 3432 
Q 2725 3281 2906 2969 
z
M 947 1747 
Q 947 1113 1208 752 
Q 1469 391 1925 391 
Q 2381 391 2643 752 
Q 2906 1113 2906 1747 
Q 2906 2381 2643 2742 
Q 2381 3103 1925 3103 
Q 1469 3103 1208 2742 
Q 947 2381 947 1747 
z
" transform="scale(0.015625)"/>
       <path id="DejaVuSans-61" d="M 2194 1759 
Q 1497 1759 1228 1600 
Q 959 1441 959 1056 
Q 959 750 1161 570 
Q 1363 391 1709 391 
Q 2188 391 2477 730 
Q 2766 1069 2766 1631 
L 2766 1759 
L 2194 1759 
z
M 3341 1997 
L 3341 0 
L 2766 0 
L 2766 531 
Q 2569 213 2275 61 
Q 1981 -91 1556 -91 
Q 1019 -91 701 211 
Q 384 513 384 1019 
Q 384 1609 779 1909 
Q 1175 2209 1959 2209 
L 2766 2209 
L 2766 2266 
Q 2766 2663 2505 2880 
Q 2244 3097 1772 3097 
Q 1472 3097 1187 3025 
Q 903 2953 641 2809 
L 641 3341 
Q 956 3463 1253 3523 
Q 1550 3584 1831 3584 
Q 2591 3584 2966 3190 
Q 3341 2797 3341 1997 
z
" transform="scale(0.015625)"/>
       <path id="DejaVuSans-72" d="M 2631 2963 
Q 2534 3019 2420 3045 
Q 2306 3072 2169 3072 
Q 1681 3072 1420 2755 
Q 1159 2438 1159 1844 
L 1159 0 
L 581 0 
L 581 3500 
L 1159 3500 
L 1159 2956 
Q 1341 3275 1631 3429 
Q 1922 3584 2338 3584 
Q 2397 3584 2469 3576 
Q 2541 3569 2628 3553 
L 2631 2963 
z
" transform="scale(0.015625)"/>
       <path id="DejaVuSans-6b" d="M 581 4863 
L 1159 4863 
L 1159 1991 
L 2875 3500 
L 3609 3500 
L 1753 1863 
L 3688 0 
L 2938 0 
L 1159 1709 
L 1159 0 
L 581 0 
L 581 4863 
z
" transform="scale(0.015625)"/>
      </defs>
      <use xlink:href="#DejaVuSans-64"/>
      <use xlink:href="#DejaVuSans-61" x="63.476562"/>
      <use xlink:href="#DejaVuSans-72" x="124.755859"/>
      <use xlink:href="#DejaVuSans-6b" x="165.869141"/>
      <use xlink:href="#DejaVuSans-31" x="223.779297"/>
     </g>
    </g>
    <g id="line2d_21">
     <path d="M 703.219375 131.456562 
L 713.219375 131.456562 
L 723.219375 131.456562 
" style="fill: none; stroke: #008000; stroke-width: 1.5; stroke-linecap: square"/>
    </g>
    <g id="text_10">
     <!-- stat2 -->
     <g transform="translate(731.219375 134.956562)scale(0.1 -0.1)">
      <defs>
       <path id="DejaVuSans-73" d="M 2834 3397 
L 2834 2853 
Q 2591 2978 2328 3040 
Q 2066 3103 1784 3103 
Q 1356 3103 1142 2972 
Q 928 2841 928 2578 
Q 928 2378 1081 2264 
Q 1234 2150 1697 2047 
L 1894 2003 
Q 2506 1872 2764 1633 
Q 3022 1394 3022 966 
Q 3022 478 2636 193 
Q 2250 -91 1575 -91 
Q 1294 -91 989 -36 
Q 684 19 347 128 
L 347 722 
Q 666 556 975 473 
Q 1284 391 1588 391 
Q 1994 391 2212 530 
Q 2431 669 2431 922 
Q 2431 1156 2273 1281 
Q 2116 1406 1581 1522 
L 1381 1569 
Q 847 1681 609 1914 
Q 372 2147 372 2553 
Q 372 3047 722 3315 
Q 1072 3584 1716 3584 
Q 2034 3584 2315 3537 
Q 2597 3491 2834 3397 
z
" transform="scale(0.015625)"/>
       <path id="DejaVuSans-74" d="M 1172 4494 
L 1172 3500 
L 2356 3500 
L 2356 3053 
L 1172 3053 
L 1172 1153 
Q 1172 725 1289 603 
Q 1406 481 1766 481 
L 2356 481 
L 2356 0 
L 1766 0 
Q 1100 0 847 248 
Q 594 497 594 1153 
L 594 3053 
L 172 3053 
L 172 3500 
L 594 3500 
L 594 4494 
L 1172 4494 
z
" transform="scale(0.015625)"/>
      </defs>
      <use xlink:href="#DejaVuSans-73"/>
      <use xlink:href="#DejaVuSans-74" x="52.099609"/>
      <use xlink:href="#DejaVuSans-61" x="91.308594"/>
      <use xlink:href="#DejaVuSans-74" x="152.587891"/>
      <use xlink:href="#DejaVuSans-32" x="191.796875"/>
     </g>
    </g>
    <g id="line2d_22">
     <path d="M 703.219375 146.134687 
L 713.219375 146.134687 
L 723.219375 146.134687 
" style="fill: none; stroke: #ff0000; stroke-width: 1.5; stroke-linecap: square"/>
    </g>
    <g id="text_11">
     <!-- stat3 -->
     <g transform="translate(731.219375 149.634687)scale(0.1 -0.1)">
      <use xlink:href="#DejaVuSans-73"/>
      <use xlink:href="#DejaVuSans-74" x="52.099609"/>
      <use xlink:href="#DejaVuSans-61" x="91.308594"/>
      <use xlink:href="#DejaVuSans-74" x="152.587891"/>
      <use xlink:href="#DejaVuSans-33" x="191.796875"/>
     </g>
    </g>
   </g>
  </g>
 </g>
 <defs>
  <clipPath id="p3b710e3f7f">
   <path d="M 768.96 429.84 
C 768.96 387.009061 760.523239 344.594599 744.132548 305.023972 
C 727.741858 265.453344 703.715995 229.496099 673.429948 199.210052 
C 643.143901 168.924005 607.186656 144.898142 567.616028 128.507452 
C 528.045401 112.116761 485.630939 103.68 442.8 103.68 
C 399.969061 103.68 357.554599 112.116761 317.983972 128.507452 
C 278.413344 144.898142 242.456099 168.924005 212.170052 199.210052 
C 181.884005 229.496099 157.858142 265.453344 141.467452 305.023972 
C 125.076761 344.594599 116.64 387.009061 116.64 429.84 
C 116.64 472.670939 125.076761 515.085401 141.467452 554.656028 
C 157.858142 594.226656 181.884005 630.183901 212.170052 660.469948 
C 242.456099 690.755995 278.413344 714.781858 317.983972 731.172548 
C 357.554599 747.563239 399.969061 756 442.8 756 
C 485.630939 756 528.045401 747.563239 567.616028 731.172548 
C 607.186656 714.781858 643.143901 690.755995 673.429948 660.469948 
C 703.715995 630.183901 727.741858 594.226656 744.132548 554.656028 
C 760.523239 515.085401 768.96 472.670939 768.96 429.84 
M 442.8 429.84 
C 442.8 429.84 442.8 429.84 442.8 429.84 
C 442.8 429.84 442.8 429.84 442.8 429.84 
C 442.8 429.84 442.8 429.84 442.8 429.84 
C 442.8 429.84 442.8 429.84 442.8 429.84 
C 442.8 429.84 442.8 429.84 442.8 429.84 
C 442.8 429.84 442.8 429.84 442.8 429.84 
C 442.8 429.84 442.8 429.84 442.8 429.84 
C 442.8 429.84 442.8 429.84 442.8 429.84 
C 442.8 429.84 442.8 429.84 442.8 429.84 
C 442.8 429.84 442.8 429.84 442.8 429.84 
C 442.8 429.84 442.8 429.84 442.8 429.84 
C 442.8 429.84 442.8 429.84 442.8 429.84 
C 442.8 429.84 442.8 429.84 442.8 429.84 
C 442.8 429.84 442.8 429.84 442.8 429.84 
C 442.8 429.84 442.8 429.84 442.8 429.84 
C 442.8 429.84 442.8 429.84 442.8 429.84 
M 768.96 429.84 
z
"/>
  </clipPath>
 </defs>
</svg>
