<?xml version="1.0" encoding="utf-8" standalone="no"?>
<!DOCTYPE svg PUBLIC "-//W3C//DTD SVG 1.1//EN"
  "http://www.w3.org/Graphics/SVG/1.1/DTD/svg11.dtd">
<svg xmlns:xlink="http://www.w3.org/1999/xlink" width="864pt" height="864pt" viewBox="0 0 864 864" xmlns="http://www.w3.org/2000/svg" version="1.1">
 <metadata>
  <rdf:RDF xmlns:dc="http://purl.org/dc/elements/1.1/" xmlns:cc="http://creativecommons.org/ns#" xmlns:rdf="http://www.w3.org/1999/02/22-rdf-syntax-ns#">
   <cc:Work>
    <dc:type rdf:resource="http://purl.org/dc/dcmitype/StillImage"/>
    <dc:date>2024-04-08T08:08:08.894477</dc:date>
    <dc:format>image/svg+xml</dc:format>
    <dc:creator>
     <cc:Agent>
      <dc:title>Matplotlib v3.5.1, https://matplotlib.org/</dc:title>
     </cc:Agent>
    </dc:creator>
   </cc:Work>
  </rdf:RDF>
 </metadata>
 <defs>
  <style type="text/css">*{stroke-linejoin: round; stroke-linecap: butt}</style>
 </defs>
 <g id="figure_1">
  <g id="patch_1">
   <path d="M 0 864 
L 864 864 
L 864 0 
L 0 0 
z
" style="fill: #ffffff"/>
  </g>
  <g id="axes_1">
   <g id="patch_2">
    <path d="M 768.96 429.84 
C 768.96 387.009061 760.523239 344.594599 744.132548 305.023972 
C 727.741858 265.453344 703.715995 229.496099 673.429948 199.210052 
C 643.143901 168.924005 607.186656 144.898142 567.616028 128.507452 
C 528.045401 112.116761 485.630939 103.68 442.8 103.68 
C 399.969061 103.68 357.554599 112.116761 317.983972 128.507452 
C 278.413344 144.898142 242.456099 168.924005 212.170052 199.210052 
C 181.884005 229.496099 157.858142 265.453344 141.467452 305.023972 
C 125.076761 344.594599 116.64 387.009061 116.64 429.84 
C 116.64 472.670939 125.076761 515.085401 141.467452 554.656028 
C 157.858142 594.226656 181.884005 630.183901 212.170052 660.469948 
C 242.456099 690.755995 278.413344 714.781858 317.983972 731.172548 
C 357.554599 747.563239 399.969061 756 442.8 756 
C 485.630939 756 528.045401 747.563239 567.616028 731.172548 
C 607.186656 714.781858 643.143901 690.755995 673.429948 660.469948 
C 703.715995 630.183901 727.741858 594.226656 744.132548 554.656028 
C 760.523239 515.085401 768.96 472.670939 768.96 429.84 
M 442.8 429.84 
C 442.8 429.84 442.8 429.84 442.8 429.84 
C 442.8 429.84 442.8 429.84 442.8 429.84 
C 442.8 429.84 442.8 429.84 442.8 429.84 
C 442.8 429.84 442.8 429.84 442.8 429.84 
C 442.8 429.84 442.8 429.84 442.8 429.84 
C 442.8 429.84 442.8 429.84 442.8 429.84 
C 442.8 429.84 442.8 429.84 442.8 429.84 
C 442.8 429.84 442.8 429.84 442.8 429.84 
C 442.8 429.84 442.8 429.84 442.8 429.84 
C 442.8 429.84 442.8 429.84 442.8 429.84 
C 442.8 429.84 442.8 429.84 442.8 429.84 
C 442.8 429.84 442.8 429.84 442.8 429.84 
C 442.8 429.84 442.8 429.84 442.8 429.84 
C 442.8 429.84 442.8 429.84 442.8 429.84 
C 442.8 429.84 442.8 429.84 442.8 429.84 
C 442.8 429.84 442.8 429.84 442.8 429.84 
M 768.96 429.84 
z
" style="fill: #ffffff"/>
   </g>
   <g id="matplotlib.axis_1">
    <g id="xtick_1">
     <g id="line2d_1">
      <path d="M 442.8 429.84 
L 442.8 103.68 
" clip-path="url(#p6afba83e8e)" style="fill: none; stroke: #b0b0b0; stroke-width: 0.8; stroke-linecap: square"/>
     </g>
     <g id="text_1">
      <!-- 0° -->
      <g transform="translate(437.11875 92.439375)scale(0.1 -0.1)">
       <defs>
        <path id="DejaVuSans-30" d="M 2034 4250 
Q 1547 4250 1301 3770 
Q 1056 3291 1056 2328 
Q 1056 1369 1301 889 
Q 1547 409 2034 409 
Q 2525 409 2770 889 
Q 3016 1369 3016 2328 
Q 3016 3291 2770 3770 
Q 2525 4250 2034 4250 
z
M 2034 4750 
Q 2819 4750 3233 4129 
Q 3647 3509 3647 2328 
Q 3647 1150 3233 529 
Q 2819 -91 2034 -91 
Q 1250 -91 836 529 
Q 422 1150 422 2328 
Q 422 3509 836 4129 
Q 1250 4750 2034 4750 
z
" transform="scale(0.015625)"/>
        <path id="DejaVuSans-b0" d="M 1600 4347 
Q 1350 4347 1178 4173 
Q 1006 4000 1006 3750 
Q 1006 3503 1178 3333 
Q 1350 3163 1600 3163 
Q 1850 3163 2022 3333 
Q 2194 3503 2194 3750 
Q 2194 3997 2020 4172 
Q 1847 4347 1600 4347 
z
M 1600 4750 
Q 1800 4750 1984 4673 
Q 2169 4597 2303 4453 
Q 2447 4313 2519 4134 
Q 2591 3956 2591 3750 
Q 2591 3338 2302 3052 
Q 2013 2766 1594 2766 
Q 1172 2766 890 3047 
Q 609 3328 609 3750 
Q 609 4169 896 4459 
Q 1184 4750 1600 4750 
z
" transform="scale(0.015625)"/>
       </defs>
       <use xlink:href="#DejaVuSans-30"/>
       <use xlink:href="#DejaVuSans-b0" x="63.623047"/>
      </g>
     </g>
    </g>
    <g id="xtick_2">
     <g id="line2d_2">
      <path d="M 442.8 429.84 
L 212.170052 199.210052 
" clip-path="url(#p6afba83e8e)" style="fill: none; stroke: #b0b0b0; stroke-width: 0.8; stroke-linecap: square"/>
     </g>
     <g id="text_2">
      <!-- 45° -->
      <g transform="translate(193.408057 192.069932)scale(0.1 -0.1)">
       <defs>
        <path id="DejaVuSans-34" d="M 2419 4116 
L 825 1625 
L 2419 1625 
L 2419 4116 
z
M 2253 4666 
L 3047 4666 
L 3047 1625 
L 3713 1625 
L 3713 1100 
L 3047 1100 
L 3047 0 
L 2419 0 
L 2419 1100 
L 313 1100 
L 313 1709 
L 2253 4666 
z
" transform="scale(0.015625)"/>
        <path id="DejaVuSans-35" d="M 691 4666 
L 3169 4666 
L 3169 4134 
L 1269 4134 
L 1269 2991 
Q 1406 3038 1543 3061 
Q 1681 3084 1819 3084 
Q 2600 3084 3056 2656 
Q 3513 2228 3513 1497 
Q 3513 744 3044 326 
Q 2575 -91 1722 -91 
Q 1428 -91 1123 -41 
Q 819 9 494 109 
L 494 744 
Q 775 591 1075 516 
Q 1375 441 1709 441 
Q 2250 441 2565 725 
Q 2881 1009 2881 1497 
Q 2881 1984 2565 2268 
Q 2250 2553 1709 2553 
Q 1456 2553 1204 2497 
Q 953 2441 691 2322 
L 691 4666 
z
" transform="scale(0.015625)"/>
       </defs>
       <use xlink:href="#DejaVuSans-34"/>
       <use xlink:href="#DejaVuSans-35" x="63.623047"/>
       <use xlink:href="#DejaVuSans-b0" x="127.246094"/>
      </g>
     </g>
    </g>
    <g id="xtick_3">
     <g id="line2d_3">
      <path d="M 442.8 429.84 
L 116.64 429.84 
" clip-path="url(#p6afba83e8e)" style="fill: none; stroke: #b0b0b0; stroke-width: 0.8; stroke-linecap: square"/>
     </g>
     <g id="text_3">
      <!-- 90° -->
      <g transform="translate(93.7775 432.599375)scale(0.1 -0.1)">
       <defs>
        <path id="DejaVuSans-39" d="M 703 97 
L 703 672 
Q 941 559 1184 500 
Q 1428 441 1663 441 
Q 2288 441 2617 861 
Q 2947 1281 2994 2138 
Q 2813 1869 2534 1725 
Q 2256 1581 1919 1581 
Q 1219 1581 811 2004 
Q 403 2428 403 3163 
Q 403 3881 828 4315 
Q 1253 4750 1959 4750 
Q 2769 4750 3195 4129 
Q 3622 3509 3622 2328 
Q 3622 1225 3098 567 
Q 2575 -91 1691 -91 
Q 1453 -91 1209 -44 
Q 966 3 703 97 
z
M 1959 2075 
Q 2384 2075 2632 2365 
Q 2881 2656 2881 3163 
Q 2881 3666 2632 3958 
Q 2384 4250 1959 4250 
Q 1534 4250 1286 3958 
Q 1038 3666 1038 3163 
Q 1038 2656 1286 2365 
Q 1534 2075 1959 2075 
z
" transform="scale(0.015625)"/>
       </defs>
       <use xlink:href="#DejaVuSans-39"/>
       <use xlink:href="#DejaVuSans-30" x="63.623047"/>
       <use xlink:href="#DejaVuSans-b0" x="127.246094"/>
      </g>
     </g>
    </g>
    <g id="xtick_4">
     <g id="line2d_4">
      <path d="M 442.8 429.84 
L 212.170052 660.469948 
" clip-path="url(#p6afba83e8e)" style="fill: none; stroke: #b0b0b0; stroke-width: 0.8; stroke-linecap: square"/>
     </g>
     <g id="text_4">
      <!-- 135° -->
      <g transform="translate(190.226807 673.128818)scale(0.1 -0.1)">
       <defs>
        <path id="DejaVuSans-31" d="M 794 531 
L 1825 531 
L 1825 4091 
L 703 3866 
L 703 4441 
L 1819 4666 
L 2450 4666 
L 2450 531 
L 3481 531 
L 3481 0 
L 794 0 
L 794 531 
z
" transform="scale(0.015625)"/>
        <path id="DejaVuSans-33" d="M 2597 2516 
Q 3050 2419 3304 2112 
Q 3559 1806 3559 1356 
Q 3559 666 3084 287 
Q 2609 -91 1734 -91 
Q 1441 -91 1130 -33 
Q 819 25 488 141 
L 488 750 
Q 750 597 1062 519 
Q 1375 441 1716 441 
Q 2309 441 2620 675 
Q 2931 909 2931 1356 
Q 2931 1769 2642 2001 
Q 2353 2234 1838 2234 
L 1294 2234 
L 1294 2753 
L 1863 2753 
Q 2328 2753 2575 2939 
Q 2822 3125 2822 3475 
Q 2822 3834 2567 4026 
Q 2313 4219 1838 4219 
Q 1578 4219 1281 4162 
Q 984 4106 628 3988 
L 628 4550 
Q 988 4650 1302 4700 
Q 1616 4750 1894 4750 
Q 2613 4750 3031 4423 
Q 3450 4097 3450 3541 
Q 3450 3153 3228 2886 
Q 3006 2619 2597 2516 
z
" transform="scale(0.015625)"/>
       </defs>
       <use xlink:href="#DejaVuSans-31"/>
       <use xlink:href="#DejaVuSans-33" x="63.623047"/>
       <use xlink:href="#DejaVuSans-35" x="127.246094"/>
       <use xlink:href="#DejaVuSans-b0" x="190.869141"/>
      </g>
     </g>
    </g>
    <g id="xtick_5">
     <g id="line2d_5">
      <path d="M 442.8 429.84 
L 442.8 756 
" clip-path="url(#p6afba83e8e)" style="fill: none; stroke: #b0b0b0; stroke-width: 0.8; stroke-linecap: square"/>
     </g>
     <g id="text_5">
      <!-- 180° -->
      <g transform="translate(430.75625 772.759375)scale(0.1 -0.1)">
       <defs>
        <path id="DejaVuSans-38" d="M 2034 2216 
Q 1584 2216 1326 1975 
Q 1069 1734 1069 1313 
Q 1069 891 1326 650 
Q 1584 409 2034 409 
Q 2484 409 2743 651 
Q 3003 894 3003 1313 
Q 3003 1734 2745 1975 
Q 2488 2216 2034 2216 
z
M 1403 2484 
Q 997 2584 770 2862 
Q 544 3141 544 3541 
Q 544 4100 942 4425 
Q 1341 4750 2034 4750 
Q 2731 4750 3128 4425 
Q 3525 4100 3525 3541 
Q 3525 3141 3298 2862 
Q 3072 2584 2669 2484 
Q 3125 2378 3379 2068 
Q 3634 1759 3634 1313 
Q 3634 634 3220 271 
Q 2806 -91 2034 -91 
Q 1263 -91 848 271 
Q 434 634 434 1313 
Q 434 1759 690 2068 
Q 947 2378 1403 2484 
z
M 1172 3481 
Q 1172 3119 1398 2916 
Q 1625 2713 2034 2713 
Q 2441 2713 2670 2916 
Q 2900 3119 2900 3481 
Q 2900 3844 2670 4047 
Q 2441 4250 2034 4250 
Q 1625 4250 1398 4047 
Q 1172 3844 1172 3481 
z
" transform="scale(0.015625)"/>
       </defs>
       <use xlink:href="#DejaVuSans-31"/>
       <use xlink:href="#DejaVuSans-38" x="63.623047"/>
       <use xlink:href="#DejaVuSans-30" x="127.246094"/>
       <use xlink:href="#DejaVuSans-b0" x="190.869141"/>
      </g>
     </g>
    </g>
    <g id="xtick_6">
     <g id="line2d_6">
      <path d="M 442.8 429.84 
L 673.429948 660.469948 
" clip-path="url(#p6afba83e8e)" style="fill: none; stroke: #b0b0b0; stroke-width: 0.8; stroke-linecap: square"/>
     </g>
     <g id="text_6">
      <!-- 225° -->
      <g transform="translate(671.285693 673.128818)scale(0.1 -0.1)">
       <defs>
        <path id="DejaVuSans-32" d="M 1228 531 
L 3431 531 
L 3431 0 
L 469 0 
L 469 531 
Q 828 903 1448 1529 
Q 2069 2156 2228 2338 
Q 2531 2678 2651 2914 
Q 2772 3150 2772 3378 
Q 2772 3750 2511 3984 
Q 2250 4219 1831 4219 
Q 1534 4219 1204 4116 
Q 875 4013 500 3803 
L 500 4441 
Q 881 4594 1212 4672 
Q 1544 4750 1819 4750 
Q 2544 4750 2975 4387 
Q 3406 4025 3406 3419 
Q 3406 3131 3298 2873 
Q 3191 2616 2906 2266 
Q 2828 2175 2409 1742 
Q 1991 1309 1228 531 
z
" transform="scale(0.015625)"/>
       </defs>
       <use xlink:href="#DejaVuSans-32"/>
       <use xlink:href="#DejaVuSans-32" x="63.623047"/>
       <use xlink:href="#DejaVuSans-35" x="127.246094"/>
       <use xlink:href="#DejaVuSans-b0" x="190.869141"/>
      </g>
     </g>
    </g>
    <g id="xtick_7">
     <g id="line2d_7">
      <path d="M 442.8 429.84 
L 768.96 429.84 
" clip-path="url(#p6afba83e8e)" style="fill: none; stroke: #b0b0b0; stroke-width: 0.8; stroke-linecap: square"/>
     </g>
     <g id="text_7">
      <!-- 270° -->
      <g transform="translate(770.91625 432.599375)scale(0.1 -0.1)">
       <defs>
        <path id="DejaVuSans-37" d="M 525 4666 
L 3525 4666 
L 3525 4397 
L 1831 0 
L 1172 0 
L 2766 4134 
L 525 4134 
L 525 4666 
z
" transform="scale(0.015625)"/>
       </defs>
       <use xlink:href="#DejaVuSans-32"/>
       <use xlink:href="#DejaVuSans-37" x="63.623047"/>
       <use xlink:href="#DejaVuSans-30" x="127.246094"/>
       <use xlink:href="#DejaVuSans-b0" x="190.869141"/>
      </g>
     </g>
    </g>
    <g id="xtick_8">
     <g id="line2d_8">
      <path d="M 442.8 429.84 
L 673.429948 199.210052 
" clip-path="url(#p6afba83e8e)" style="fill: none; stroke: #b0b0b0; stroke-width: 0.8; stroke-linecap: square"/>
     </g>
     <g id="text_8">
      <!-- 315° -->
      <g transform="translate(671.285693 192.069932)scale(0.1 -0.1)">
       <use xlink:href="#DejaVuSans-33"/>
       <use xlink:href="#DejaVuSans-31" x="63.623047"/>
       <use xlink:href="#DejaVuSans-35" x="127.246094"/>
       <use xlink:href="#DejaVuSans-b0" x="190.869141"/>
      </g>
     </g>
    </g>
   </g>
   <g id="matplotlib.axis_2">
    <g id="ytick_1">
     <g id="line2d_9">
      <path d="M 442.8 365.506824 
C 434.351845 365.506824 425.985837 367.170926 418.180759 370.403896 
C 410.375682 373.636865 403.283323 378.375827 397.309575 384.349575 
C 391.335827 390.323323 386.596865 397.415682 383.363896 405.220759 
C 380.130926 413.025837 378.466824 421.391845 378.466824 429.84 
C 378.466824 438.288155 380.130926 446.654163 383.363896 454.459241 
C 386.596865 462.264318 391.335827 469.356677 397.309575 475.330425 
C 403.283323 481.304173 410.375682 486.043135 418.180759 489.276104 
C 425.985837 492.509074 434.351845 494.173176 442.8 494.173176 
C 451.248155 494.173176 459.614163 492.509074 467.419241 489.276104 
C 475.224318 486.043135 482.316677 481.304173 488.290425 475.330425 
C 494.264173 469.356677 499.003135 462.264318 502.236104 454.459241 
C 505.469074 446.654163 507.133176 438.288155 507.133176 429.84 
C 507.133176 421.391845 505.469074 413.025837 502.236104 405.220759 
C 499.003135 397.415682 494.264173 390.323323 488.290425 384.349575 
C 482.316677 378.375827 475.224318 373.636865 467.419241 370.403896 
C 459.614163 367.170926 451.248155 365.506824 442.8 365.506824 
" clip-path="url(#p6afba83e8e)" style="fill: none; stroke: #b0b0b0; stroke-width: 0.8; stroke-linecap: square"/>
     </g>
    </g>
    <g id="ytick_2">
     <g id="line2d_10">
      <path d="M 442.8 301.173648 
C 425.903689 301.173648 409.171674 304.501853 393.561519 310.967791 
C 377.951363 317.433729 363.766646 326.911654 351.81915 338.85915 
C 339.871654 350.806646 330.393729 364.991363 323.927791 380.601519 
C 317.461853 396.211674 314.133648 412.943689 314.133648 429.84 
C 314.133648 446.736311 317.461853 463.468326 323.927791 479.078481 
C 330.393729 494.688637 339.871654 508.873354 351.81915 520.82085 
C 363.766646 532.768346 377.951363 542.246271 393.561519 548.712209 
C 409.171674 555.178147 425.903689 558.506352 442.8 558.506352 
C 459.696311 558.506352 476.428326 555.178147 492.038481 548.712209 
C 507.648637 542.246271 521.833354 532.768346 533.78085 520.82085 
C 545.728346 508.873354 555.206271 494.688637 561.672209 479.078481 
C 568.138147 463.468326 571.466352 446.736311 571.466352 429.84 
C 571.466352 412.943689 568.138147 396.211674 561.672209 380.601519 
C 555.206271 364.991363 545.728346 350.806646 533.78085 338.85915 
C 521.833354 326.911654 507.648637 317.433729 492.038481 310.967791 
C 476.428326 304.501853 459.696311 301.173648 442.8 301.173648 
" clip-path="url(#p6afba83e8e)" style="fill: none; stroke: #b0b0b0; stroke-width: 0.8; stroke-linecap: square"/>
     </g>
    </g>
    <g id="ytick_3">
     <g id="line2d_11">
      <path d="M 442.8 236.840472 
C 417.455534 236.840472 392.357511 241.832779 368.942278 251.531687 
C 345.527045 261.230594 324.249969 275.447482 306.328725 293.368725 
C 288.407482 311.289969 274.190594 332.567045 264.491687 355.982278 
C 254.792779 379.397511 249.800472 404.495534 249.800472 429.84 
C 249.800472 455.184466 254.792779 480.282489 264.491687 503.697722 
C 274.190594 527.112955 288.407482 548.390031 306.328725 566.311275 
C 324.249969 584.232518 345.527045 598.449406 368.942278 608.148313 
C 392.357511 617.847221 417.455534 622.839528 442.8 622.839528 
C 468.144466 622.839528 493.242489 617.847221 516.657722 608.148313 
C 540.072955 598.449406 561.350031 584.232518 579.271275 566.311275 
C 597.192518 548.390031 611.409406 527.112955 621.108313 503.697722 
C 630.807221 480.282489 635.799528 455.184466 635.799528 429.84 
C 635.799528 404.495534 630.807221 379.397511 621.108313 355.982278 
C 611.409406 332.567045 597.192518 311.289969 579.271275 293.368725 
C 561.350031 275.447482 540.072955 261.230594 516.657722 251.531687 
C 493.242489 241.832779 468.144466 236.840472 442.8 236.840472 
" clip-path="url(#p6afba83e8e)" style="fill: none; stroke: #b0b0b0; stroke-width: 0.8; stroke-linecap: square"/>
     </g>
    </g>
    <g id="ytick_4">
     <g id="line2d_12">
      <path d="M 442.8 172.507296 
C 409.007379 172.507296 375.543349 179.163706 344.323038 192.095582 
C 313.102727 205.027458 284.733292 223.983309 260.8383 247.8783 
C 236.943309 271.773292 217.987458 300.142727 205.055582 331.363038 
C 192.123706 362.583349 185.467296 396.047379 185.467296 429.84 
C 185.467296 463.632621 192.123706 497.096651 205.055582 528.316962 
C 217.987458 559.537273 236.943309 587.906708 260.8383 611.8017 
C 284.733292 635.696691 313.102727 654.652542 344.323038 667.584418 
C 375.543349 680.516294 409.007379 687.172704 442.8 687.172704 
C 476.592621 687.172704 510.056651 680.516294 541.276962 667.584418 
C 572.497273 654.652542 600.866708 635.696691 624.7617 611.8017 
C 648.656691 587.906708 667.612542 559.537273 680.544418 528.316962 
C 693.476294 497.096651 700.132704 463.632621 700.132704 429.84 
C 700.132704 396.047379 693.476294 362.583349 680.544418 331.363038 
C 667.612542 300.142727 648.656691 271.773292 624.7617 247.8783 
C 600.866708 223.983309 572.497273 205.027458 541.276962 192.095582 
C 510.056651 179.163706 476.592621 172.507296 442.8 172.507296 
" clip-path="url(#p6afba83e8e)" style="fill: none; stroke: #b0b0b0; stroke-width: 0.8; stroke-linecap: square"/>
     </g>
    </g>
    <g id="ytick_5">
     <g id="line2d_13">
      <path d="M 442.8 108.17412 
C 400.559224 108.17412 358.729186 116.494632 319.703797 132.659478 
C 280.678408 148.824323 245.216615 172.519136 215.347875 202.387875 
C 185.479136 232.256615 161.784323 267.718408 145.619478 306.743797 
C 129.454632 345.769186 121.13412 387.599224 121.13412 429.84 
C 121.13412 472.080776 129.454632 513.910814 145.619478 552.936203 
C 161.784323 591.961592 185.479136 627.423385 215.347875 657.292125 
C 245.216615 687.160864 280.678408 710.855677 319.703797 727.020522 
C 358.729186 743.185368 400.559224 751.50588 442.8 751.50588 
C 485.040776 751.50588 526.870814 743.185368 565.896203 727.020522 
C 604.921592 710.855677 640.383385 687.160864 670.252125 657.292125 
C 700.120864 627.423385 723.815677 591.961592 739.980522 552.936203 
C 756.145368 513.910814 764.46588 472.080776 764.46588 429.84 
C 764.46588 387.599224 756.145368 345.769186 739.980522 306.743797 
C 723.815677 267.718408 700.120864 232.256615 670.252125 202.387875 
C 640.383385 172.519136 604.921592 148.824323 565.896203 132.659478 
C 526.870814 116.494632 485.040776 108.17412 442.8 108.17412 
" clip-path="url(#p6afba83e8e)" style="fill: none; stroke: #b0b0b0; stroke-width: 0.8; stroke-linecap: square"/>
     </g>
    </g>
   </g>
   <g id="line2d_14">
    <path d="M 442.8 429.84 
L 182.272863 487.732026 
" clip-path="url(#p6afba83e8e)" style="fill: none; stroke: #ff0000; stroke-width: 1.5; stroke-linecap: square"/>
   </g>
   <g id="line2d_15">
    <path d="M 442.8 429.84 
L 435.406295 569.917112 
" clip-path="url(#p6afba83e8e)" style="fill: none; stroke: #008000; stroke-width: 1.5; stroke-linecap: square"/>
   </g>
   <g id="line2d_16">
    <path d="M 442.8 429.84 
L 140.470955 358.514983 
" clip-path="url(#p6afba83e8e)" style="fill: none; stroke: #ff0000; stroke-width: 1.5; stroke-linecap: square"/>
   </g>
   <g id="patch_3">
    <path d="M 442.8 103.68 
C 399.969061 103.68 357.554599 112.116761 317.983972 128.507452 
C 278.413344 144.898142 242.456099 168.924005 212.170052 199.210052 
C 181.884005 229.496099 157.858142 265.453344 141.467452 305.023972 
C 125.076761 344.594599 116.64 387.009061 116.64 429.84 
C 116.64 472.670939 125.076761 515.085401 141.467452 554.656028 
C 157.858142 594.226656 181.884005 630.183901 212.170052 660.469948 
C 242.456099 690.755995 278.413344 714.781858 317.983972 731.172548 
C 357.554599 747.563239 399.969061 756 442.8 756 
C 485.630939 756 528.045401 747.563239 567.616028 731.172548 
C 607.186656 714.781858 643.143901 690.755995 673.429948 660.469948 
C 703.715995 630.183901 727.741858 594.226656 744.132548 554.656028 
C 760.523239 515.085401 768.96 472.670939 768.96 429.84 
C 768.96 387.009061 760.523239 344.594599 744.132548 305.023972 
C 727.741858 265.453344 703.715995 229.496099 673.429948 199.210052 
C 643.143901 168.924005 607.186656 144.898142 567.616028 128.507452 
C 528.045401 112.116761 485.630939 103.68 442.8 103.68 
" style="fill: none; stroke: #000000; stroke-width: 0.8; stroke-linejoin: miter; stroke-linecap: square"/>
   </g>
   <g id="legend_1">
    <g id="patch_4">
     <path d="M 707.581875 155.714375 
L 761.96 155.714375 
Q 763.96 155.714375 763.96 153.714375 
L 763.96 110.68 
Q 763.96 108.68 761.96 108.68 
L 707.581875 108.68 
Q 705.581875 108.68 705.581875 110.68 
L 705.581875 153.714375 
Q 705.581875 155.714375 707.581875 155.714375 
z
" style="fill: #ffffff; opacity: 0.8; stroke: #cccccc; stroke-linejoin: miter"/>
    </g>
    <g id="line2d_17">
     <path d="M 709.581875 116.778437 
L 719.581875 116.778437 
L 729.581875 116.778437 
" style="fill: none; stroke: #008000; stroke-width: 2; stroke-linecap: square"/>
    </g>
    <g id="text_9">
     <!-- loop -->
     <g transform="translate(737.581875 120.278437)scale(0.1 -0.1)">
      <defs>
       <path id="DejaVuSans-6c" d="M 603 4863 
L 1178 4863 
L 1178 0 
L 603 0 
L 603 4863 
z
" transform="scale(0.015625)"/>
       <path id="DejaVuSans-6f" d="M 1959 3097 
Q 1497 3097 1228 2736 
Q 959 2375 959 1747 
Q 959 1119 1226 758 
Q 1494 397 1959 397 
Q 2419 397 2687 759 
Q 2956 1122 2956 1747 
Q 2956 2369 2687 2733 
Q 2419 3097 1959 3097 
z
M 1959 3584 
Q 2709 3584 3137 3096 
Q 3566 2609 3566 1747 
Q 3566 888 3137 398 
Q 2709 -91 1959 -91 
Q 1206 -91 779 398 
Q 353 888 353 1747 
Q 353 2609 779 3096 
Q 1206 3584 1959 3584 
z
" transform="scale(0.015625)"/>
       <path id="DejaVuSans-70" d="M 1159 525 
L 1159 -1331 
L 581 -1331 
L 581 3500 
L 1159 3500 
L 1159 2969 
Q 1341 3281 1617 3432 
Q 1894 3584 2278 3584 
Q 2916 3584 3314 3078 
Q 3713 2572 3713 1747 
Q 3713 922 3314 415 
Q 2916 -91 2278 -91 
Q 1894 -91 1617 61 
Q 1341 213 1159 525 
z
M 3116 1747 
Q 3116 2381 2855 2742 
Q 2594 3103 2138 3103 
Q 1681 3103 1420 2742 
Q 1159 2381 1159 1747 
Q 1159 1113 1420 752 
Q 1681 391 2138 391 
Q 2594 391 2855 752 
Q 3116 1113 3116 1747 
z
" transform="scale(0.015625)"/>
      </defs>
      <use xlink:href="#DejaVuSans-6c"/>
      <use xlink:href="#DejaVuSans-6f" x="27.783203"/>
      <use xlink:href="#DejaVuSans-6f" x="88.964844"/>
      <use xlink:href="#DejaVuSans-70" x="150.146484"/>
     </g>
    </g>
    <g id="line2d_18">
     <path d="M 709.581875 131.456562 
L 719.581875 131.456562 
L 729.581875 131.456562 
" style="fill: none; stroke: #0000ff; stroke-width: 2; stroke-linecap: square"/>
    </g>
    <g id="text_10">
     <!-- dark -->
     <g transform="translate(737.581875 134.956562)scale(0.1 -0.1)">
      <defs>
       <path id="DejaVuSans-64" d="M 2906 2969 
L 2906 4863 
L 3481 4863 
L 3481 0 
L 2906 0 
L 2906 525 
Q 2725 213 2448 61 
Q 2172 -91 1784 -91 
Q 1150 -91 751 415 
Q 353 922 353 1747 
Q 353 2572 751 3078 
Q 1150 3584 1784 3584 
Q 2172 3584 2448 3432 
Q 2725 3281 2906 2969 
z
M 947 1747 
Q 947 1113 1208 752 
Q 1469 391 1925 391 
Q 2381 391 2643 752 
Q 2906 1113 2906 1747 
Q 2906 2381 2643 2742 
Q 2381 3103 1925 3103 
Q 1469 3103 1208 2742 
Q 947 2381 947 1747 
z
" transform="scale(0.015625)"/>
       <path id="DejaVuSans-61" d="M 2194 1759 
Q 1497 1759 1228 1600 
Q 959 1441 959 1056 
Q 959 750 1161 570 
Q 1363 391 1709 391 
Q 2188 391 2477 730 
Q 2766 1069 2766 1631 
L 2766 1759 
L 2194 1759 
z
M 3341 1997 
L 3341 0 
L 2766 0 
L 2766 531 
Q 2569 213 2275 61 
Q 1981 -91 1556 -91 
Q 1019 -91 701 211 
Q 384 513 384 1019 
Q 384 1609 779 1909 
Q 1175 2209 1959 2209 
L 2766 2209 
L 2766 2266 
Q 2766 2663 2505 2880 
Q 2244 3097 1772 3097 
Q 1472 3097 1187 3025 
Q 903 2953 641 2809 
L 641 3341 
Q 956 3463 1253 3523 
Q 1550 3584 1831 3584 
Q 2591 3584 2966 3190 
Q 3341 2797 3341 1997 
z
" transform="scale(0.015625)"/>
       <path id="DejaVuSans-72" d="M 2631 2963 
Q 2534 3019 2420 3045 
Q 2306 3072 2169 3072 
Q 1681 3072 1420 2755 
Q 1159 2438 1159 1844 
L 1159 0 
L 581 0 
L 581 3500 
L 1159 3500 
L 1159 2956 
Q 1341 3275 1631 3429 
Q 1922 3584 2338 3584 
Q 2397 3584 2469 3576 
Q 2541 3569 2628 3553 
L 2631 2963 
z
" transform="scale(0.015625)"/>
       <path id="DejaVuSans-6b" d="M 581 4863 
L 1159 4863 
L 1159 1991 
L 2875 3500 
L 3609 3500 
L 1753 1863 
L 3688 0 
L 2938 0 
L 1159 1709 
L 1159 0 
L 581 0 
L 581 4863 
z
" transform="scale(0.015625)"/>
      </defs>
      <use xlink:href="#DejaVuSans-64"/>
      <use xlink:href="#DejaVuSans-61" x="63.476562"/>
      <use xlink:href="#DejaVuSans-72" x="124.755859"/>
      <use xlink:href="#DejaVuSans-6b" x="165.869141"/>
     </g>
    </g>
    <g id="line2d_19">
     <path d="M 709.581875 146.134687 
L 719.581875 146.134687 
L 729.581875 146.134687 
" style="fill: none; stroke: #ff0000; stroke-width: 2; stroke-linecap: square"/>
    </g>
    <g id="text_11">
     <!-- stat -->
     <g transform="translate(737.581875 149.634687)scale(0.1 -0.1)">
      <defs>
       <path id="DejaVuSans-73" d="M 2834 3397 
L 2834 2853 
Q 2591 2978 2328 3040 
Q 2066 3103 1784 3103 
Q 1356 3103 1142 2972 
Q 928 2841 928 2578 
Q 928 2378 1081 2264 
Q 1234 2150 1697 2047 
L 1894 2003 
Q 2506 1872 2764 1633 
Q 3022 1394 3022 966 
Q 3022 478 2636 193 
Q 2250 -91 1575 -91 
Q 1294 -91 989 -36 
Q 684 19 347 128 
L 347 722 
Q 666 556 975 473 
Q 1284 391 1588 391 
Q 1994 391 2212 530 
Q 2431 669 2431 922 
Q 2431 1156 2273 1281 
Q 2116 1406 1581 1522 
L 1381 1569 
Q 847 1681 609 1914 
Q 372 2147 372 2553 
Q 372 3047 722 3315 
Q 1072 3584 1716 3584 
Q 2034 3584 2315 3537 
Q 2597 3491 2834 3397 
z
" transform="scale(0.015625)"/>
       <path id="DejaVuSans-74" d="M 1172 4494 
L 1172 3500 
L 2356 3500 
L 2356 3053 
L 1172 3053 
L 1172 1153 
Q 1172 725 1289 603 
Q 1406 481 1766 481 
L 2356 481 
L 2356 0 
L 1766 0 
Q 1100 0 847 248 
Q 594 497 594 1153 
L 594 3053 
L 172 3053 
L 172 3500 
L 594 3500 
L 594 4494 
L 1172 4494 
z
" transform="scale(0.015625)"/>
      </defs>
      <use xlink:href="#DejaVuSans-73"/>
      <use xlink:href="#DejaVuSans-74" x="52.099609"/>
      <use xlink:href="#DejaVuSans-61" x="91.308594"/>
      <use xlink:href="#DejaVuSans-74" x="152.587891"/>
     </g>
    </g>
   </g>
  </g>
 </g>
 <defs>
  <clipPath id="p6afba83e8e">
   <path d="M 768.96 429.84 
C 768.96 387.009061 760.523239 344.594599 744.132548 305.023972 
C 727.741858 265.453344 703.715995 229.496099 673.429948 199.210052 
C 643.143901 168.924005 607.186656 144.898142 567.616028 128.507452 
C 528.045401 112.116761 485.630939 103.68 442.8 103.68 
C 399.969061 103.68 357.554599 112.116761 317.983972 128.507452 
C 278.413344 144.898142 242.456099 168.924005 212.170052 199.210052 
C 181.884005 229.496099 157.858142 265.453344 141.467452 305.023972 
C 125.076761 344.594599 116.64 387.009061 116.64 429.84 
C 116.64 472.670939 125.076761 515.085401 141.467452 554.656028 
C 157.858142 594.226656 181.884005 630.183901 212.170052 660.469948 
C 242.456099 690.755995 278.413344 714.781858 317.983972 731.172548 
C 357.554599 747.563239 399.969061 756 442.8 756 
C 485.630939 756 528.045401 747.563239 567.616028 731.172548 
C 607.186656 714.781858 643.143901 690.755995 673.429948 660.469948 
C 703.715995 630.183901 727.741858 594.226656 744.132548 554.656028 
C 760.523239 515.085401 768.96 472.670939 768.96 429.84 
M 442.8 429.84 
C 442.8 429.84 442.8 429.84 442.8 429.84 
C 442.8 429.84 442.8 429.84 442.8 429.84 
C 442.8 429.84 442.8 429.84 442.8 429.84 
C 442.8 429.84 442.8 429.84 442.8 429.84 
C 442.8 429.84 442.8 429.84 442.8 429.84 
C 442.8 429.84 442.8 429.84 442.8 429.84 
C 442.8 429.84 442.8 429.84 442.8 429.84 
C 442.8 429.84 442.8 429.84 442.8 429.84 
C 442.8 429.84 442.8 429.84 442.8 429.84 
C 442.8 429.84 442.8 429.84 442.8 429.84 
C 442.8 429.84 442.8 429.84 442.8 429.84 
C 442.8 429.84 442.8 429.84 442.8 429.84 
C 442.8 429.84 442.8 429.84 442.8 429.84 
C 442.8 429.84 442.8 429.84 442.8 429.84 
C 442.8 429.84 442.8 429.84 442.8 429.84 
C 442.8 429.84 442.8 429.84 442.8 429.84 
M 768.96 429.84 
z
"/>
  </clipPath>
 </defs>
</svg>
